<svg id="svg" version="1.1" xmlns="http://www.w3.org/2000/svg" xmlns:xlink="http://www.w3.org/1999/xlink" width="400" height="400" viewBox="0, 0, 400,400"><g id="svgg"><path id="path0" d="M184.824 10.921 C 181.085 12.113,178.872 16.297,179.915 20.199 C 180.322 21.721,180.147 124.310,179.737 124.776 C 179.651 124.873,175.210 124.903,169.867 124.843 C 161.902 124.754,160.068 124.836,159.685 125.298 C 159.370 125.677,159.182 128.533,159.109 134.031 L 159.000 142.200 152.230 142.310 C 144.049 142.443,144.814 143.312,144.806 133.874 C 144.798 123.761,146.079 124.800,133.615 124.800 L 123.258 124.800 122.429 125.854 C 121.620 126.883,121.600 127.314,121.600 144.028 C 121.600 154.184,121.441 161.565,121.210 162.174 L 120.820 163.200 113.400 163.200 L 105.980 163.200 105.496 164.300 C 105.218 164.931,104.924 168.130,104.806 171.800 L 104.600 178.200 98.600 178.315 C 89.960 178.480,90.800 179.216,90.800 171.481 C 90.800 162.381,91.921 163.200,79.457 163.200 C 72.137 163.200,69.228 163.332,68.880 163.680 C 68.520 164.040,68.400 169.034,68.400 183.691 L 68.400 203.222 99.443 203.188 C 116.517 203.169,130.584 203.251,130.704 203.371 C 131.011 203.678,130.829 208.142,130.271 214.000 L 129.794 219.000 104.132 219.103 L 78.469 219.206 78.234 220.703 C 77.869 223.027,76.861 233.579,76.391 240.000 C 76.158 243.190,75.790 248.050,75.574 250.800 C 75.202 255.544,74.938 258.980,74.025 271.000 C 73.591 276.698,72.635 287.528,72.011 293.800 C 71.792 296.000,71.257 302.840,70.821 309.000 C 70.385 315.160,69.820 322.720,69.566 325.800 C 68.847 334.488,68.184 334.574,77.593 324.753 C 87.485 314.427,97.061 304.804,101.400 300.829 C 103.160 299.216,105.700 296.849,107.045 295.568 L 109.490 293.240 109.945 289.693 C 110.195 287.742,110.400 285.423,110.400 284.540 C 110.400 283.656,110.524 282.809,110.676 282.657 C 110.828 282.505,110.973 281.890,110.998 281.290 C 111.187 276.796,111.154 276.921,111.909 277.857 C 112.289 278.329,113.008 278.837,113.506 278.986 C 114.638 279.325,114.285 280.000,112.976 280.000 C 111.621 280.000,111.719 281.125,113.100 281.420 C 113.705 281.549,114.613 281.823,115.119 282.028 C 115.624 282.232,116.096 282.400,116.168 282.400 C 116.505 282.400,116.182 278.959,115.817 278.662 C 115.579 278.469,115.743 278.439,116.200 278.593 C 118.397 279.329,120.000 279.254,120.000 278.415 C 120.000 277.867,120.262 277.600,120.800 277.600 C 121.534 277.600,121.800 278.036,121.628 278.957 C 121.592 279.154,121.704 279.874,121.878 280.557 C 122.153 281.640,122.220 281.469,122.397 279.231 C 122.531 277.539,122.789 276.600,123.155 276.480 C 123.830 276.257,123.369 287.252,122.019 303.600 C 121.810 306.130,121.447 311.260,121.211 315.000 C 120.976 318.740,120.607 323.690,120.392 326.000 C 119.701 333.415,119.164 342.818,119.409 343.215 C 119.557 343.454,128.384 343.600,142.762 343.600 L 165.877 343.600 166.162 317.100 C 166.476 287.932,166.426 288.513,169.036 284.157 C 178.015 269.170,199.269 271.580,205.618 288.306 C 206.478 290.572,206.489 290.921,206.544 317.000 L 206.600 343.400 225.939 343.504 L 245.278 343.608 245.017 339.304 C 244.769 335.210,244.070 324.836,243.217 312.600 C 243.002 309.520,242.635 303.670,242.401 299.600 C 241.543 284.667,240.261 265.869,238.787 246.600 C 238.569 243.740,238.209 238.430,237.988 234.800 C 237.213 222.038,236.797 215.752,236.402 210.800 C 236.182 208.050,235.822 202.380,235.601 198.200 C 235.163 189.923,234.944 188.061,234.315 187.300 C 233.989 186.905,223.340 186.800,183.525 186.800 C 151.436 186.800,132.882 186.658,132.416 186.409 C 132.014 186.193,130.364 184.348,128.751 182.309 C 127.138 180.269,125.724 178.510,125.609 178.400 C 124.562 177.397,120.800 171.964,120.800 171.455 C 120.800 170.851,125.880 170.800,186.200 170.800 L 251.600 170.800 251.600 148.280 C 251.600 131.298,251.482 125.642,251.120 125.280 C 250.303 124.463,228.959 124.608,228.643 125.433 C 228.509 125.781,228.400 129.539,228.400 133.784 C 228.400 143.246,229.094 142.452,220.946 142.310 L 214.600 142.200 214.491 134.031 C 214.422 128.829,214.223 125.669,213.943 125.331 C 213.600 124.918,211.467 124.800,204.351 124.800 L 195.200 124.800 195.200 91.661 C 195.200 62.048,195.132 58.386,194.558 57.237 C 193.807 55.730,194.094 55.216,195.274 55.953 C 205.717 62.475,213.902 62.610,225.600 56.453 L 231.400 53.400 236.200 53.408 C 240.633 53.414,241.163 53.498,243.133 54.508 C 245.870 55.910,245.811 55.922,246.631 53.774 C 249.426 46.455,260.781 43.623,270.361 47.855 C 272.977 49.011,273.075 48.946,272.042 46.739 C 267.229 36.449,255.683 26.631,245.600 24.254 C 237.271 22.291,231.591 23.109,222.077 27.646 C 212.867 32.037,207.242 32.352,199.974 28.883 C 195.453 26.724,194.978 25.939,195.118 20.857 C 195.319 13.561,190.656 9.060,184.824 10.921 M192.720 126.080 C 193.433 126.793,193.394 141.341,192.678 141.936 C 191.857 142.617,180.385 142.618,179.953 141.938 C 179.282 140.878,179.526 126.931,180.229 126.229 C 181.035 125.422,191.933 125.293,192.720 126.080 M158.407 211.854 L 160.017 213.309 159.909 220.754 L 159.800 228.200 154.200 228.200 L 148.600 228.200 148.482 221.800 C 148.292 211.521,148.784 210.653,154.899 210.460 C 156.562 210.407,156.998 210.581,158.407 211.854 M221.214 210.800 C 221.877 210.800,222.809 211.261,223.558 211.960 L 224.800 213.121 224.800 220.280 C 224.800 229.011,225.254 228.400,218.769 228.400 C 212.538 228.400,212.964 228.914,212.672 221.046 C 212.360 212.669,213.815 209.990,218.356 210.574 C 219.322 210.698,220.607 210.800,221.214 210.800 M190.565 211.308 C 191.824 212.567,192.000 213.671,192.000 220.297 C 192.000 228.993,192.414 228.456,185.814 228.313 C 179.577 228.177,180.096 228.965,180.040 219.554 C 179.987 210.722,179.935 210.800,185.858 210.800 C 188.720 210.800,190.219 210.962,190.565 211.308 M103.254 244.000 C 103.063 253.147,103.617 252.446,96.680 252.311 L 91.000 252.200 90.890 245.911 C 90.805 241.056,90.915 239.299,91.374 238.200 L 91.968 236.778 97.684 236.889 L 103.400 237.000 103.254 244.000 M114.481 283.941 C 114.067 284.204,114.087 284.374,114.581 284.784 C 114.921 285.067,115.200 285.201,115.200 285.082 C 115.200 284.963,115.309 284.581,115.443 284.233 C 115.707 283.544,115.301 283.421,114.481 283.941 " stroke="none" fill="#dee0e3" fill-rule="evenodd"></path><path id="path1" d="M0.000 200.000 L 0.000 400.000 200.000 400.000 L 400.000 400.000 400.000 200.000 L 400.000 0.000 200.000 0.000 L 0.000 0.000 0.000 200.000 M190.821 10.900 C 191.754 11.395,193.232 12.743,194.104 13.896 L 195.691 15.993 195.662 20.537 C 195.627 25.968,195.894 26.377,200.801 28.401 C 206.776 30.864,212.404 31.305,215.695 29.567 C 216.077 29.365,216.622 29.200,216.906 29.200 C 217.190 29.200,219.577 28.133,222.211 26.829 C 238.505 18.762,255.550 23.035,267.071 38.074 C 267.692 38.885,268.679 40.145,269.264 40.874 C 271.432 43.578,274.370 50.000,273.438 50.000 C 273.349 50.000,272.584 49.651,271.738 49.224 C 261.403 44.007,250.448 46.196,247.232 54.122 C 246.424 56.112,244.800 57.431,244.800 56.098 C 244.800 55.045,239.370 53.901,235.143 54.064 C 231.216 54.215,229.623 54.807,222.600 58.720 C 220.673 59.794,219.217 60.322,215.800 61.189 C 213.828 61.690,207.336 61.727,205.760 61.247 C 205.122 61.052,203.790 60.656,202.800 60.365 C 200.931 59.816,198.215 58.457,196.277 57.099 C 195.128 56.294,194.274 56.434,195.127 57.287 C 195.484 57.644,195.600 65.958,195.600 91.080 L 195.600 124.400 204.957 124.400 C 216.120 124.400,214.902 123.258,214.821 133.649 C 214.748 142.903,214.045 142.002,221.333 141.994 C 226.741 141.988,227.586 141.823,227.483 140.794 C 227.141 137.389,228.172 124.736,228.820 124.389 C 230.350 123.571,250.191 123.903,251.256 124.764 L 252.200 125.529 252.310 148.012 C 252.390 164.476,252.297 170.642,251.961 171.047 C 251.574 171.513,241.372 171.600,186.818 171.600 C 151.241 171.600,122.026 171.707,121.895 171.838 C 121.645 172.088,122.919 173.910,126.620 178.600 C 127.836 180.140,129.545 182.340,130.419 183.488 C 131.292 184.636,132.321 185.724,132.704 185.905 C 133.087 186.086,157.880 186.285,187.800 186.346 C 235.474 186.444,242.257 186.532,242.663 187.055 C 242.918 187.384,243.239 189.576,243.377 191.926 C 243.514 194.277,243.802 198.360,244.017 201.000 C 244.501 206.946,245.461 219.554,245.996 227.000 C 246.217 230.080,246.492 233.680,246.607 235.000 C 246.722 236.320,246.984 239.830,247.189 242.800 C 247.394 245.770,247.746 250.450,247.971 253.200 C 248.196 255.950,248.562 260.630,248.785 263.600 C 249.007 266.570,249.282 269.810,249.394 270.800 C 249.507 271.790,249.958 277.730,250.396 284.000 C 250.835 290.270,251.379 297.740,251.606 300.600 C 252.091 306.722,252.628 313.709,253.189 321.200 C 253.411 324.170,253.890 330.346,254.253 334.924 C 254.763 341.360,254.804 343.356,254.436 343.724 C 253.896 344.264,207.576 344.436,206.272 343.902 C 205.578 343.618,205.549 342.381,205.633 316.702 L 205.722 289.800 204.194 286.647 C 197.246 272.304,178.514 270.702,169.976 283.719 C 169.140 284.995,168.330 286.609,168.177 287.306 C 168.024 288.003,167.743 288.850,167.553 289.187 C 167.363 289.524,167.071 302.040,166.904 317.000 L 166.600 344.200 117.400 344.059 C 90.340 343.981,68.061 343.788,67.890 343.629 C 67.720 343.471,67.865 339.484,68.213 334.770 C 68.561 330.057,69.008 323.680,69.207 320.600 C 70.332 303.184,70.665 299.065,71.812 288.400 C 72.433 282.632,72.840 277.913,73.606 267.600 C 73.827 264.630,74.170 260.220,74.369 257.800 C 74.860 251.808,75.904 238.212,76.396 231.400 C 76.943 223.823,77.452 219.583,77.860 219.204 C 78.047 219.031,89.608 218.797,103.552 218.684 C 121.970 218.535,128.981 218.354,129.187 218.021 C 129.343 217.769,129.512 216.536,129.562 215.282 C 129.613 214.027,129.791 211.020,129.959 208.600 C 130.126 206.180,130.201 204.077,130.125 203.927 C 130.049 203.777,116.435 203.761,99.872 203.890 C 83.309 204.020,69.272 204.004,68.679 203.855 L 67.600 203.585 67.600 184.081 C 67.600 167.077,67.680 164.464,68.223 163.689 C 68.840 162.808,68.940 162.800,79.609 162.800 C 92.475 162.800,91.200 161.928,91.200 170.731 C 91.200 178.316,90.446 177.600,98.433 177.600 L 104.400 177.600 104.400 171.380 C 104.400 163.036,104.507 162.821,108.710 162.741 C 111.612 162.685,119.856 162.460,120.488 162.419 C 120.646 162.408,120.826 154.403,120.888 144.629 C 120.997 127.269,121.019 126.832,121.843 125.729 L 122.686 124.600 133.489 124.494 C 146.750 124.363,145.339 123.284,145.600 133.760 L 145.800 141.800 152.200 141.800 L 158.600 141.800 158.820 133.200 C 158.941 128.470,159.076 124.555,159.120 124.500 C 159.164 124.445,163.793 124.400,169.406 124.400 L 179.612 124.400 179.433 71.900 C 179.334 43.025,179.241 18.538,179.225 17.485 C 179.138 11.819,185.617 8.140,190.821 10.900 M180.340 133.600 C 180.307 137.560,180.262 141.025,180.240 141.300 C 180.210 141.671,181.541 141.830,185.400 141.915 C 193.169 142.088,192.400 142.959,192.400 133.992 L 192.400 126.400 186.400 126.400 L 180.400 126.400 180.340 133.600 M269.909 170.500 L 270.018 178.000 276.609 178.000 L 283.200 178.000 283.205 171.300 C 283.208 167.615,283.320 164.192,283.454 163.694 L 283.697 162.787 294.548 162.894 L 305.400 163.000 305.504 183.300 L 305.607 203.600 282.027 203.600 C 268.358 203.600,258.353 203.448,258.223 203.237 C 257.949 202.795,257.409 197.149,256.821 188.600 C 256.579 185.080,256.207 180.400,255.994 178.200 C 255.189 169.874,254.777 163.561,255.013 163.179 C 255.165 162.934,258.034 162.824,262.529 162.891 L 269.800 163.000 269.909 170.500 M152.331 211.064 C 151.743 211.165,150.798 211.711,150.231 212.278 L 149.200 213.309 149.200 220.466 L 149.200 227.624 154.300 227.512 L 159.400 227.400 159.510 220.705 L 159.619 214.009 158.296 212.565 C 156.928 211.073,155.042 210.598,152.331 211.064 M215.506 211.806 C 213.140 213.413,212.956 214.170,213.318 220.787 C 213.493 223.984,213.707 226.811,213.794 227.069 C 213.905 227.400,215.410 227.518,218.876 227.469 L 223.800 227.400 223.914 220.800 C 223.977 217.170,223.929 213.798,223.808 213.307 C 223.282 211.171,217.878 210.194,215.506 211.806 M181.462 211.931 C 180.900 212.552,180.801 213.690,180.805 219.431 C 180.813 228.800,180.325 228.000,186.029 228.000 L 190.764 228.000 191.011 226.684 C 191.557 223.769,191.042 212.583,190.329 211.870 C 189.307 210.850,182.397 210.898,181.462 211.931 M296.557 219.130 C 296.669 219.311,296.865 221.156,296.993 223.230 C 297.120 225.303,297.403 228.890,297.622 231.200 C 297.840 233.510,298.296 238.640,298.635 242.600 C 298.975 246.560,299.330 250.160,299.426 250.600 C 299.620 251.495,300.249 257.934,300.792 264.600 C 300.990 267.020,301.337 271.070,301.565 273.600 C 301.960 277.992,302.899 289.004,304.208 304.600 C 305.570 320.821,306.048 326.131,306.799 333.400 C 307.003 335.380,307.288 338.575,307.433 340.500 L 307.695 344.000 288.837 344.000 L 269.980 344.000 269.648 343.100 C 269.465 342.605,269.202 340.310,269.063 338.000 C 268.755 332.854,267.514 317.659,266.402 305.400 C 265.637 296.969,264.754 287.232,264.390 283.200 C 264.182 280.890,263.907 277.920,263.779 276.600 C 262.947 267.973,262.392 261.325,262.010 255.400 C 261.768 251.660,261.397 246.946,261.185 244.923 C 260.973 242.901,260.802 240.201,260.804 238.923 C 260.806 237.646,260.628 234.890,260.409 232.800 C 259.064 219.985,259.039 219.547,259.631 219.172 C 260.345 218.720,296.278 218.679,296.557 219.130 M92.038 237.940 C 91.847 238.303,91.560 241.525,91.400 245.100 L 91.109 251.600 96.717 251.600 L 102.325 251.600 102.592 247.900 C 102.738 245.865,102.800 242.670,102.729 240.800 L 102.600 237.400 97.493 237.340 C 93.115 237.289,92.335 237.375,92.038 237.940 M272.982 237.703 C 272.871 237.993,272.829 241.283,272.890 245.015 L 273.000 251.800 278.400 251.800 L 283.800 251.800 283.732 244.600 L 283.665 237.400 278.424 237.288 C 274.380 237.202,273.138 237.297,272.982 237.703 M335.000 360.946 C 341.118 363.608,341.457 371.632,335.578 374.611 L 333.627 375.600 186.298 375.600 L 38.970 375.600 37.185 374.700 C 31.804 371.987,31.399 364.097,36.498 361.311 C 38.939 359.978,331.950 359.619,335.000 360.946 " stroke="none" fill="#2b343c" fill-rule="evenodd"></path><path id="path2" d="M195.309 19.200 C 195.309 20.190,195.387 20.595,195.482 20.100 C 195.578 19.605,195.578 18.795,195.482 18.300 C 195.387 17.805,195.309 18.210,195.309 19.200 M125.511 124.693 C 126.451 124.778,127.891 124.777,128.711 124.691 C 129.530 124.605,128.760 124.536,127.000 124.537 C 125.240 124.539,124.570 124.609,125.511 124.693 M136.300 124.689 C 137.015 124.778,138.185 124.778,138.900 124.689 C 139.615 124.601,139.030 124.528,137.600 124.528 C 136.170 124.528,135.585 124.601,136.300 124.689 M255.698 166.490 C 255.797 168.311,256.273 174.570,256.755 180.400 C 257.237 186.230,257.849 193.700,258.116 197.000 L 258.600 203.000 281.900 203.103 L 305.200 203.206 305.200 187.831 L 305.200 172.456 304.300 172.282 L 303.400 172.109 304.300 172.054 C 305.172 172.002,305.200 171.871,305.200 167.843 C 305.200 163.321,305.137 163.200,302.777 163.200 C 301.551 163.200,301.549 163.211,302.182 166.478 C 302.280 166.981,301.989 167.187,301.057 167.278 C 299.360 167.443,299.618 168.143,301.487 168.443 L 303.000 168.686 301.543 168.743 C 299.970 168.805,299.600 169.279,299.600 171.233 L 299.600 172.400 296.800 172.400 L 294.000 172.400 294.000 169.600 L 294.000 166.800 297.176 166.800 C 300.466 166.800,301.120 166.501,300.450 165.303 C 300.164 164.792,300.232 164.406,300.702 163.887 C 301.403 163.113,285.660 162.821,284.422 163.586 C 284.023 163.833,283.904 165.092,283.946 168.647 C 284.005 173.596,284.209 174.965,284.829 174.582 C 285.033 174.456,285.200 174.644,285.200 175.000 C 285.200 175.356,285.020 175.536,284.800 175.400 C 284.375 175.137,284.263 175.614,284.390 177.145 C 284.440 177.737,284.307 177.990,284.035 177.821 C 283.796 177.674,283.600 177.743,283.600 177.976 C 283.600 178.338,269.796 178.655,269.523 178.300 C 269.481 178.245,269.346 174.870,269.223 170.800 L 269.000 163.400 262.259 163.290 L 255.517 163.180 255.698 166.490 M298.256 169.878 C 297.741 170.393,298.001 172.000,298.600 172.000 C 298.969 172.000,299.200 171.625,299.200 171.024 C 299.200 170.020,298.709 169.424,298.256 169.878 M294.400 171.400 C 294.400 171.730,294.670 172.000,295.000 172.000 C 295.330 172.000,295.600 171.730,295.600 171.400 C 295.600 171.070,295.330 170.800,295.000 170.800 C 294.670 170.800,294.400 171.070,294.400 171.400 M290.458 172.928 L 291.600 172.700 291.600 175.750 C 291.600 178.645,291.554 178.800,290.700 178.804 C 290.205 178.807,289.156 178.915,288.370 179.045 C 286.232 179.399,285.187 178.281,286.485 177.029 C 286.988 176.544,287.537 176.216,287.705 176.300 C 287.873 176.385,287.951 175.465,287.879 174.256 C 287.752 172.141,287.777 172.078,288.532 172.607 C 288.995 172.932,289.784 173.063,290.458 172.928 M285.272 180.096 C 285.429 181.197,286.769 181.530,287.426 180.632 C 287.870 180.025,287.924 180.025,288.157 180.633 C 288.362 181.166,288.522 181.197,289.005 180.796 C 289.522 180.367,289.600 180.674,289.600 183.151 L 289.600 186.000 280.300 186.001 L 271.000 186.002 271.138 183.318 C 271.239 181.351,271.378 180.817,271.658 181.317 C 271.988 181.907,272.759 182.000,277.334 182.000 L 282.628 182.000 283.371 180.700 C 283.779 179.985,283.872 179.625,283.577 179.900 C 283.282 180.175,282.851 180.394,282.620 180.387 C 281.911 180.366,283.706 179.200,284.449 179.200 C 284.864 179.200,285.196 179.560,285.272 180.096 M288.267 181.867 C 287.697 182.436,287.979 185.600,288.600 185.600 C 289.053 185.600,289.200 185.111,289.200 183.600 C 289.200 181.741,288.917 181.216,288.267 181.867 M142.500 186.687 C 143.105 186.778,144.095 186.778,144.700 186.687 C 145.305 186.595,144.810 186.520,143.600 186.520 C 142.390 186.520,141.895 186.595,142.500 186.687 M158.900 186.676 C 159.285 186.776,159.915 186.776,160.300 186.676 C 160.685 186.575,160.370 186.493,159.600 186.493 C 158.830 186.493,158.515 186.575,158.900 186.676 M261.600 187.243 C 261.600 187.439,262.410 187.600,263.400 187.600 C 265.197 187.600,265.200 187.602,265.200 189.029 C 265.200 190.691,264.366 191.806,263.654 191.094 C 263.315 190.755,263.082 190.758,262.733 191.107 C 262.221 191.619,262.552 191.821,264.400 192.126 C 265.013 192.227,264.753 192.312,263.727 192.346 C 262.219 192.395,262.041 192.300,261.927 191.388 C 261.754 190.006,261.029 189.945,260.873 191.300 C 260.762 192.266,260.577 192.400,259.350 192.400 C 258.563 192.400,258.056 192.233,258.189 192.017 C 258.319 191.807,258.734 191.753,259.112 191.898 C 259.753 192.144,259.752 192.092,259.098 191.093 C 258.528 190.223,258.509 190.067,258.999 190.255 C 259.456 190.430,259.600 190.182,259.600 189.219 C 259.600 188.313,259.742 188.038,260.100 188.253 C 260.497 188.492,260.499 188.428,260.110 187.947 C 259.753 187.507,259.739 187.221,260.058 186.902 C 260.534 186.426,261.600 186.662,261.600 187.243 M235.438 187.662 C 235.595 187.916,235.764 190.751,235.812 193.962 C 235.914 200.642,236.639 212.462,237.022 213.668 C 237.163 214.114,237.329 214.932,237.390 215.485 C 237.450 216.038,237.722 216.628,237.993 216.795 C 238.378 217.033,238.379 217.166,238.000 217.400 C 237.628 217.630,237.641 217.780,238.057 218.044 C 238.457 218.297,238.468 218.389,238.100 218.394 C 237.812 218.397,237.600 218.910,237.600 219.600 C 237.600 220.443,237.794 220.800,238.253 220.800 C 238.797 220.800,238.860 221.083,238.633 222.500 C 238.380 224.073,238.387 230.983,238.644 235.200 C 238.705 236.190,238.858 239.520,238.984 242.600 C 239.111 245.680,239.482 249.730,239.808 251.600 C 240.135 253.470,240.485 257.610,240.586 260.800 C 240.687 263.990,240.861 267.410,240.974 268.400 C 241.087 269.390,241.271 271.910,241.384 274.000 C 241.496 276.090,241.679 279.060,241.790 280.600 C 241.901 282.140,242.070 284.531,242.166 285.912 C 242.262 287.294,242.456 291.794,242.598 295.912 C 242.833 302.779,243.312 307.183,243.933 308.200 C 244.068 308.420,244.216 308.852,244.262 309.160 C 244.309 309.468,244.528 309.832,244.749 309.968 C 245.587 310.486,245.612 312.517,244.787 313.094 C 244.332 313.413,244.003 314.100,244.006 314.723 C 244.011 315.528,244.104 315.654,244.377 315.223 C 244.763 314.614,248.000 313.487,248.000 313.962 C 248.000 314.115,247.777 314.463,247.503 314.737 C 247.108 315.132,247.116 315.301,247.545 315.566 C 247.950 315.816,247.978 316.095,247.655 316.697 C 247.420 317.136,247.357 317.637,247.514 317.811 C 247.671 317.985,247.488 318.015,247.106 317.879 C 246.366 317.613,245.600 318.601,245.600 319.820 C 245.600 320.296,245.834 320.432,246.400 320.284 C 247.054 320.113,247.200 320.272,247.200 321.157 C 247.200 321.753,247.416 322.456,247.680 322.720 C 248.053 323.093,248.053 323.211,247.680 323.250 C 247.416 323.278,246.975 323.327,246.700 323.360 C 246.425 323.392,246.250 323.775,246.311 324.210 C 246.539 325.845,246.432 336.286,246.166 338.353 C 245.937 340.124,246.004 340.571,246.544 340.873 C 247.314 341.304,247.424 343.043,246.700 343.335 C 246.425 343.446,247.944 343.551,250.076 343.568 C 254.691 343.606,254.573 343.735,254.029 339.259 C 253.793 337.320,253.421 333.139,253.202 329.967 C 252.982 326.795,252.619 321.860,252.394 319.000 C 252.168 316.140,251.807 311.280,251.590 308.200 C 251.374 305.120,251.015 300.350,250.792 297.600 C 250.570 294.850,250.221 290.350,250.018 287.600 C 249.683 283.071,249.186 276.828,248.012 262.400 C 247.298 253.634,245.544 230.000,245.177 224.200 C 244.981 221.120,244.653 216.440,244.446 213.800 C 244.239 211.160,243.788 205.040,243.444 200.200 C 243.099 195.360,242.710 190.455,242.580 189.300 L 242.342 187.200 238.748 187.200 C 236.131 187.200,235.230 187.326,235.438 187.662 M112.900 203.498 C 114.825 203.571,117.975 203.571,119.900 203.498 C 121.825 203.425,120.250 203.365,116.400 203.365 C 112.550 203.365,110.975 203.425,112.900 203.498 M264.500 219.499 C 260.073 219.624,259.817 219.708,259.945 221.000 C 260.501 226.619,261.208 235.927,261.967 247.600 C 262.175 250.790,262.451 254.570,262.580 256.000 C 262.710 257.430,262.998 260.760,263.220 263.400 C 263.442 266.040,263.888 270.990,264.212 274.400 C 264.535 277.810,264.978 282.490,265.195 284.800 C 265.413 287.110,265.777 290.980,266.005 293.400 C 266.233 295.820,266.595 299.510,266.809 301.600 C 267.187 305.291,267.622 310.689,268.403 321.400 C 269.666 338.713,269.643 338.557,270.643 336.754 L 271.172 335.800 271.186 336.876 C 271.194 337.468,271.380 338.064,271.600 338.200 C 271.820 338.336,272.000 338.227,272.000 337.957 C 272.000 337.687,272.112 337.579,272.249 337.716 C 272.874 338.340,272.005 339.302,271.320 338.745 C 270.735 338.269,270.683 338.289,270.913 338.900 C 271.296 339.924,270.599 339.756,270.080 338.700 C 269.654 337.832,269.778 341.664,270.222 343.104 C 270.345 343.502,274.238 343.586,288.689 343.504 L 307.000 343.400 307.131 342.257 C 307.203 341.629,307.113 341.207,306.931 341.320 C 306.749 341.432,306.596 340.506,306.590 339.262 C 306.585 338.018,306.348 334.840,306.064 332.200 C 305.781 329.560,305.392 325.510,305.201 323.200 C 304.553 315.359,304.386 313.406,303.990 309.000 C 303.773 306.580,303.326 301.270,302.997 297.200 C 302.440 290.295,302.165 287.199,301.206 277.000 C 300.703 271.653,300.131 265.267,299.397 256.800 C 299.064 252.950,298.616 248.180,298.402 246.200 C 297.609 238.861,297.181 234.041,296.786 228.000 C 296.563 224.590,296.275 221.215,296.146 220.500 L 295.911 219.200 282.455 219.286 C 275.055 219.333,266.975 219.428,264.500 219.499 M180.501 224.200 C 180.505 225.080,180.587 225.393,180.683 224.895 C 180.779 224.398,180.775 223.678,180.675 223.295 C 180.575 222.913,180.496 223.320,180.501 224.200 M283.733 236.902 C 284.345 237.349,284.407 238.197,284.309 244.802 L 284.200 252.200 278.632 252.312 C 275.569 252.373,272.929 252.283,272.764 252.112 C 271.983 251.299,272.181 237.549,272.982 236.964 C 274.007 236.214,282.724 236.164,283.733 236.902 M95.500 237.095 C 96.655 237.176,98.545 237.176,99.700 237.095 C 100.855 237.014,99.910 236.948,97.600 236.948 C 95.290 236.948,94.345 237.014,95.500 237.095 M102.901 248.600 C 102.905 249.480,102.987 249.793,103.083 249.295 C 103.179 248.798,103.175 248.078,103.075 247.695 C 102.975 247.313,102.896 247.720,102.901 248.600 M93.105 252.283 C 93.602 252.379,94.322 252.375,94.705 252.275 C 95.087 252.175,94.680 252.096,93.800 252.101 C 92.920 252.105,92.607 252.187,93.105 252.283 M295.200 252.824 C 295.200 253.277,295.380 253.536,295.600 253.400 C 295.826 253.260,296.000 253.588,296.000 254.153 C 296.000 254.703,295.820 255.264,295.600 255.400 C 295.380 255.536,295.200 255.839,295.200 256.073 C 295.200 256.351,295.396 256.335,295.769 256.026 C 296.235 255.639,296.298 255.702,296.122 256.377 C 296.004 256.830,295.748 257.200,295.553 257.200 C 295.359 257.200,295.200 257.740,295.200 258.400 C 295.200 259.727,292.033 260.235,290.830 259.100 C 290.406 258.700,290.263 258.700,290.117 259.100 C 289.634 260.415,289.200 259.325,289.200 256.800 L 289.200 254.000 290.500 254.032 C 291.215 254.049,291.530 254.153,291.200 254.263 C 290.870 254.373,290.350 254.543,290.046 254.640 C 289.602 254.781,289.634 254.975,290.208 255.608 C 290.956 256.435,293.600 256.741,293.600 256.000 C 293.600 255.780,293.465 255.621,293.300 255.647 C 292.567 255.763,292.000 255.568,292.000 255.200 C 292.000 254.980,292.330 254.800,292.733 254.800 C 293.843 254.800,294.073 254.344,293.362 253.558 C 292.565 252.677,292.940 252.000,294.224 252.000 C 294.943 252.000,295.200 252.217,295.200 252.824 M278.500 253.889 C 277.785 253.978,276.615 253.978,275.900 253.889 C 275.185 253.801,275.770 253.728,277.200 253.728 C 278.630 253.728,279.215 253.801,278.500 253.889 M278.076 256.669 C 278.236 258.566,279.092 258.882,279.309 257.124 C 279.434 256.106,279.487 256.250,279.536 257.749 C 279.590 259.385,279.509 259.623,279.036 259.230 C 278.650 258.909,278.389 258.894,278.212 259.181 C 278.069 259.411,276.793 259.600,275.376 259.600 L 272.800 259.600 272.800 257.820 C 272.800 255.689,273.377 255.230,276.076 255.212 C 277.950 255.200,277.952 255.201,278.076 256.669 M289.817 257.572 C 289.691 257.777,289.770 258.058,289.993 258.196 C 290.471 258.491,291.200 258.117,291.200 257.576 C 291.200 257.090,290.117 257.087,289.817 257.572 M291.690 257.669 C 291.894 258.283,293.594 258.398,293.612 257.800 C 293.619 257.580,293.150 257.341,292.569 257.269 C 291.831 257.178,291.566 257.298,291.690 257.669 M117.000 283.200 C 116.864 283.420,116.965 283.600,117.225 283.600 C 117.564 283.600,117.548 283.781,117.167 284.240 C 116.874 284.593,116.594 285.160,116.544 285.500 C 116.494 285.841,116.216 286.266,115.927 286.445 C 114.226 287.493,114.122 287.680,114.398 289.187 C 114.714 290.916,114.258 291.752,112.800 292.119 C 112.141 292.285,111.527 292.942,110.999 294.047 C 110.462 295.170,109.692 295.985,108.664 296.518 C 107.821 296.956,107.023 297.596,106.891 297.939 C 106.658 298.548,105.914 299.548,104.900 300.616 C 104.625 300.906,104.400 301.426,104.400 301.771 C 104.400 302.117,104.297 302.400,104.171 302.400 C 103.760 302.400,102.833 301.301,103.056 301.078 C 103.175 300.958,102.985 300.902,102.632 300.954 C 102.019 301.044,100.592 302.273,97.819 305.100 C 97.117 305.815,96.423 306.400,96.276 306.400 C 95.743 306.400,94.400 307.792,94.400 308.346 C 94.400 309.070,92.360 311.032,91.235 311.389 C 90.750 311.543,90.013 312.432,89.545 313.428 C 89.088 314.400,88.539 315.086,88.325 314.954 C 87.941 314.716,76.000 326.547,76.000 327.165 C 76.000 327.727,72.409 331.200,71.827 331.200 C 71.519 331.200,71.207 331.338,71.133 331.507 C 71.060 331.676,70.550 332.171,70.000 332.607 C 69.450 333.043,68.962 333.850,68.915 334.400 C 68.868 334.950,68.707 337.211,68.559 339.424 L 68.288 343.449 93.592 343.558 L 118.895 343.668 117.842 342.534 C 117.024 341.652,116.902 341.309,117.295 340.992 C 118.738 339.826,118.888 338.944,119.397 328.600 C 119.473 327.060,119.739 324.540,119.989 323.000 C 120.557 319.493,120.823 311.792,120.438 309.971 C 120.279 309.217,120.306 307.880,120.499 307.001 C 120.724 305.970,120.689 304.833,120.400 303.799 C 119.742 301.449,119.649 300.001,120.155 299.994 C 120.400 299.991,120.330 299.813,120.000 299.600 C 119.670 299.387,119.580 299.209,119.800 299.206 C 120.020 299.202,120.221 298.307,120.248 297.217 C 120.274 296.127,120.184 295.248,120.048 295.265 C 119.295 295.356,119.073 295.141,119.585 294.817 C 120.043 294.528,120.082 294.202,119.763 293.324 C 119.441 292.434,119.509 291.921,120.092 290.863 C 120.972 289.264,120.938 286.539,120.034 286.192 C 119.507 285.989,119.502 285.908,120.000 285.600 C 120.426 285.337,120.692 285.522,121.013 286.308 C 121.356 287.147,121.500 287.237,121.694 286.732 C 122.050 285.804,120.866 284.289,119.968 284.524 C 119.562 284.631,118.998 284.431,118.715 284.082 C 118.323 283.598,118.319 283.518,118.700 283.747 C 118.975 283.912,119.200 283.876,119.200 283.666 C 119.200 282.922,117.407 282.542,117.000 283.200 M118.985 285.976 C 119.113 286.182,118.853 286.324,118.409 286.291 C 117.964 286.257,117.600 286.088,117.600 285.915 C 117.600 285.473,118.704 285.521,118.985 285.976 M114.800 294.449 C 114.800 294.642,114.530 294.800,114.200 294.800 C 113.855 294.800,113.600 294.439,113.600 293.951 C 113.600 293.242,113.699 293.184,114.200 293.600 C 114.530 293.874,114.800 294.256,114.800 294.449 M245.613 316.500 C 245.625 317.730,245.657 317.758,246.213 317.024 C 246.969 316.024,246.963 315.200,246.200 315.200 C 245.787 315.200,245.604 315.605,245.613 316.500 M297.196 336.700 C 297.165 338.185,297.153 339.636,297.170 339.925 C 297.192 340.319,297.978 340.430,300.300 340.369 C 302.005 340.324,303.430 340.427,303.466 340.599 C 303.502 340.770,303.772 341.083,304.066 341.293 C 304.459 341.574,304.407 341.613,303.867 341.438 C 303.464 341.307,301.079 341.200,298.567 341.200 L 294.000 341.200 294.000 337.600 L 294.000 334.000 295.627 334.000 L 297.254 334.000 297.196 336.700 M301.600 334.600 C 301.600 334.930,301.330 335.200,301.000 335.200 C 300.670 335.200,300.400 334.930,300.400 334.600 C 300.400 334.270,300.670 334.000,301.000 334.000 C 301.330 334.000,301.600 334.270,301.600 334.600 M116.200 342.800 C 116.359 343.057,115.004 343.200,112.424 343.200 C 110.008 343.200,108.400 343.040,108.400 342.800 C 108.400 342.562,109.925 342.400,112.176 342.400 C 114.263 342.400,116.063 342.579,116.200 342.800 M79.105 343.075 C 78.722 343.175,78.002 343.179,77.505 343.083 C 77.007 342.987,77.320 342.905,78.200 342.901 C 79.080 342.896,79.487 342.975,79.105 343.075 M278.100 343.093 C 277.165 343.177,275.635 343.177,274.700 343.093 C 273.765 343.009,274.530 342.940,276.400 342.940 C 278.270 342.940,279.035 343.009,278.100 343.093 M301.300 343.096 C 299.925 343.174,297.675 343.174,296.300 343.096 C 294.925 343.018,296.050 342.954,298.800 342.954 C 301.550 342.954,302.675 343.018,301.300 343.096 M78.200 361.238 C 48.820 361.492,49.199 361.480,49.322 362.167 C 49.372 362.445,48.374 362.600,46.537 362.600 C 44.963 362.600,43.758 362.735,43.861 362.900 C 43.963 363.065,43.900 363.200,43.721 363.200 C 43.541 363.200,43.424 364.055,43.461 365.100 C 43.498 366.145,43.450 366.460,43.354 365.800 C 42.928 362.857,42.887 362.800,41.192 362.800 C 40.317 362.800,39.600 362.620,39.600 362.400 C 39.600 362.180,40.275 361.997,41.100 361.994 C 41.925 361.991,42.870 361.808,43.200 361.589 C 43.618 361.311,42.830 361.222,40.600 361.295 C 37.588 361.394,37.400 361.452,37.400 362.292 C 37.400 362.783,37.220 363.143,37.000 363.092 C 36.780 363.042,36.624 362.780,36.654 362.511 C 36.737 361.751,35.429 362.591,34.630 363.811 C 34.104 364.613,34.053 364.982,34.408 365.409 C 34.661 365.715,34.732 366.186,34.565 366.456 C 34.348 366.808,34.169 366.729,33.931 366.173 C 33.725 365.690,33.644 366.396,33.716 368.052 C 33.857 371.280,35.000 373.042,37.811 374.363 L 39.663 375.234 93.731 375.058 C 123.469 374.961,147.980 374.881,148.200 374.881 C 148.420 374.880,190.121 374.959,240.870 375.056 L 333.139 375.233 334.990 374.363 C 340.118 371.952,340.597 365.278,335.884 361.916 L 334.600 361.000 220.400 360.998 C 157.590 360.997,93.600 361.105,78.200 361.238 M44.400 361.600 C 44.400 361.820,45.019 362.000,45.776 362.000 C 46.533 362.000,47.264 361.820,47.400 361.600 C 47.549 361.358,47.004 361.200,46.024 361.200 C 45.131 361.200,44.400 361.380,44.400 361.600 M50.800 364.000 C 50.800 364.440,50.980 364.800,51.200 364.800 C 51.420 364.800,51.600 365.340,51.600 366.000 C 51.600 367.242,51.934 367.419,53.936 367.241 C 54.580 367.184,54.779 367.310,54.574 367.642 C 54.360 367.989,54.520 368.051,55.137 367.863 C 55.612 367.718,56.388 367.482,56.863 367.337 C 57.516 367.138,57.646 367.203,57.397 367.605 C 57.146 368.011,57.249 368.056,57.834 367.797 C 59.265 367.164,62.474 367.075,62.850 367.658 C 63.118 368.072,63.274 368.086,63.513 367.717 C 63.959 367.030,66.200 367.273,66.200 368.009 C 66.200 368.384,65.723 368.646,64.892 368.726 C 64.173 368.795,63.689 369.020,63.816 369.226 C 63.943 369.432,63.666 369.600,63.200 369.600 C 62.734 369.600,62.464 369.420,62.600 369.200 C 62.881 368.745,58.705 368.628,58.255 369.078 C 57.829 369.504,56.766 369.579,57.022 369.165 C 57.146 368.964,56.866 368.800,56.400 368.800 C 55.934 368.800,55.642 368.944,55.751 369.120 C 55.859 369.296,55.522 369.440,55.000 369.440 C 54.478 369.440,54.141 369.296,54.249 369.120 C 54.358 368.944,52.806 368.800,50.800 368.800 C 48.470 368.800,47.242 368.945,47.400 369.200 C 47.543 369.431,47.172 369.597,46.524 369.594 C 45.651 369.589,45.534 369.501,46.000 369.200 C 46.361 368.967,46.410 368.810,46.124 368.806 C 45.862 368.803,45.538 368.976,45.405 369.192 C 45.104 369.678,43.600 368.807,43.600 368.147 C 43.600 367.893,43.870 367.582,44.200 367.455 C 44.613 367.297,44.800 366.652,44.800 365.384 L 44.800 363.543 47.197 363.641 C 48.516 363.695,49.716 363.618,49.864 363.470 C 50.374 362.960,50.800 363.201,50.800 364.000 M36.229 365.200 C 36.229 366.129,35.785 366.260,35.465 365.426 C 35.344 365.110,35.460 364.764,35.722 364.657 C 35.985 364.551,36.206 364.449,36.214 364.432 C 36.222 364.414,36.229 364.760,36.229 365.200 M41.810 366.370 C 41.594 367.050,40.400 367.611,40.400 367.033 C 40.400 366.941,40.296 366.595,40.169 366.265 C 40.012 365.855,40.235 365.617,40.869 365.516 C 42.068 365.326,42.125 365.377,41.810 366.370 M41.600 370.400 C 41.600 371.911,41.453 372.400,41.000 372.400 C 40.547 372.400,40.400 371.911,40.400 370.400 C 40.400 368.889,40.547 368.400,41.000 368.400 C 41.453 368.400,41.600 368.889,41.600 370.400 M108.800 370.627 C 108.800 372.820,108.783 372.851,107.700 372.727 C 106.179 372.552,106.002 369.485,107.500 369.272 C 107.995 369.202,108.400 368.977,108.400 368.772 C 108.400 368.567,108.490 368.400,108.600 368.400 C 108.710 368.400,108.800 369.402,108.800 370.627 M53.900 372.276 C 53.515 372.376,52.885 372.376,52.500 372.276 C 52.115 372.175,52.430 372.093,53.200 372.093 C 53.970 372.093,54.285 372.175,53.900 372.276 M61.500 372.287 C 60.895 372.378,59.905 372.378,59.300 372.287 C 58.695 372.195,59.190 372.120,60.400 372.120 C 61.610 372.120,62.105 372.195,61.500 372.287 M45.200 374.145 C 45.200 374.525,44.868 374.623,44.100 374.471 L 43.000 374.252 44.000 373.966 C 44.550 373.809,45.045 373.662,45.100 373.640 C 45.155 373.618,45.200 373.845,45.200 374.145 M53.200 374.200 C 53.544 374.615,53.559 374.800,53.249 374.800 C 53.002 374.800,52.800 374.609,52.800 374.376 C 52.800 374.143,52.620 374.064,52.400 374.200 C 52.180 374.336,52.000 374.257,52.000 374.024 C 52.000 373.412,52.622 373.503,53.200 374.200 M98.800 374.429 C 98.800 374.845,92.837 374.943,91.799 374.544 C 90.511 374.050,91.952 373.801,95.359 373.929 C 97.251 374.001,98.800 374.226,98.800 374.429 M62.100 374.289 C 61.385 374.378,60.215 374.378,59.500 374.289 C 58.785 374.201,59.370 374.128,60.800 374.128 C 62.230 374.128,62.815 374.201,62.100 374.289 M73.700 374.293 C 72.765 374.377,71.235 374.377,70.300 374.293 C 69.365 374.209,70.130 374.140,72.000 374.140 C 73.870 374.140,74.635 374.209,73.700 374.293 M81.500 374.287 C 80.895 374.378,79.905 374.378,79.300 374.287 C 78.695 374.195,79.190 374.120,80.400 374.120 C 81.610 374.120,82.105 374.195,81.500 374.287 M134.700 374.697 C 132.995 374.772,130.205 374.772,128.500 374.697 C 126.795 374.622,128.190 374.561,131.600 374.561 C 135.010 374.561,136.405 374.622,134.700 374.697 " stroke="none" fill="#939ea9" fill-rule="evenodd"></path><path id="path3" d="M183.512 10.775 C 181.988 11.537,181.437 12.005,180.417 13.402 C 180.097 13.841,180.457 13.637,181.217 12.948 C 182.698 11.608,183.938 10.876,185.577 10.379 C 186.377 10.136,186.426 10.065,185.800 10.050 C 185.360 10.040,184.330 10.366,183.512 10.775 M190.433 10.916 C 190.525 10.980,191.320 11.533,192.200 12.145 L 193.800 13.258 192.415 12.029 C 191.653 11.353,190.858 10.800,190.648 10.800 C 190.438 10.800,190.342 10.852,190.433 10.916 M194.327 14.605 C 194.763 15.268,195.203 16.258,195.305 16.805 L 195.491 17.800 195.544 16.800 C 195.573 16.241,195.141 15.270,194.565 14.600 L 193.534 13.400 194.327 14.605 M179.504 72.228 L 179.609 124.400 169.404 124.400 C 163.792 124.400,159.165 124.445,159.123 124.500 C 158.882 124.815,158.651 141.911,158.891 141.670 C 159.052 141.509,159.232 137.692,159.291 133.189 L 159.400 125.000 169.600 124.800 L 179.800 124.600 179.902 72.867 C 179.957 44.414,179.867 20.892,179.702 20.595 C 179.536 20.299,179.447 43.534,179.504 72.228 M195.320 22.800 C 195.320 24.010,195.395 24.505,195.487 23.900 C 195.578 23.295,195.578 22.305,195.487 21.700 C 195.395 21.095,195.320 21.590,195.320 22.800 M231.600 23.221 C 230.952 23.442,231.445 23.480,233.000 23.331 C 234.320 23.204,235.475 23.032,235.567 22.950 C 235.890 22.659,232.586 22.884,231.600 23.221 M240.833 22.949 C 240.925 23.031,241.900 23.207,243.000 23.341 C 244.346 23.505,244.739 23.465,244.200 23.220 C 243.439 22.874,240.483 22.636,240.833 22.949 M227.272 24.459 C 226.101 24.909,225.208 25.341,225.286 25.419 C 225.364 25.497,226.592 25.130,228.014 24.602 C 229.436 24.074,230.330 23.642,230.000 23.642 C 229.670 23.642,228.442 24.010,227.272 24.459 M247.923 24.580 C 253.866 26.678,258.099 29.372,263.600 34.559 C 265.250 36.115,265.880 36.595,265.000 35.625 C 264.120 34.656,262.885 33.411,262.256 32.859 C 261.627 32.306,260.887 31.630,260.613 31.355 C 258.103 28.846,249.540 24.303,246.307 23.766 C 245.588 23.646,246.316 24.013,247.923 24.580 M196.401 26.155 C 198.044 28.056,206.037 31.271,207.689 30.696 C 207.970 30.598,207.390 30.381,206.400 30.214 C 203.732 29.762,198.020 27.359,196.623 26.100 L 195.403 25.000 196.401 26.155 M221.102 27.304 C 220.279 27.763,219.673 28.206,219.755 28.289 C 219.886 28.420,222.712 26.985,223.167 26.557 C 223.614 26.135,222.436 26.562,221.102 27.304 M215.800 29.600 C 215.508 30.073,215.899 30.073,217.000 29.600 C 217.771 29.269,217.769 29.255,216.924 29.228 C 216.442 29.213,215.936 29.380,215.800 29.600 M212.000 30.400 C 210.656 30.831,212.108 30.831,213.800 30.400 C 214.878 30.126,214.898 30.094,214.000 30.087 C 213.450 30.083,212.550 30.224,212.000 30.400 M268.055 39.806 C 268.635 40.463,269.666 41.900,270.347 43.000 C 271.028 44.100,271.588 44.856,271.592 44.681 C 271.606 44.095,268.930 40.211,267.958 39.406 C 267.094 38.690,267.103 38.729,268.055 39.806 M259.300 46.287 C 259.905 46.378,260.895 46.378,261.500 46.287 C 262.105 46.195,261.610 46.120,260.400 46.120 C 259.190 46.120,258.695 46.195,259.300 46.287 M255.200 46.800 C 254.405 47.314,255.404 47.314,256.600 46.800 L 257.400 46.456 256.600 46.434 C 256.160 46.422,255.530 46.587,255.200 46.800 M264.800 46.800 C 265.130 47.013,265.760 47.178,266.200 47.166 L 267.000 47.144 266.200 46.800 C 265.004 46.286,264.005 46.286,264.800 46.800 M273.096 48.445 C 273.325 49.320,271.990 49.262,271.020 48.355 C 270.811 48.160,270.361 48.001,270.020 48.002 C 269.679 48.003,270.286 48.453,271.368 49.002 C 272.450 49.551,273.395 50.000,273.468 50.000 C 273.777 50.000,273.568 48.027,273.237 47.823 C 273.038 47.700,272.974 47.980,273.096 48.445 M249.199 50.202 C 248.683 50.751,248.382 51.200,248.530 51.200 C 248.918 51.200,250.499 49.565,250.302 49.368 C 250.211 49.277,249.714 49.652,249.199 50.202 M231.600 53.883 C 229.802 54.540,226.726 56.059,226.880 56.213 C 226.978 56.312,228.036 55.899,229.229 55.296 C 231.513 54.143,238.001 53.732,241.600 54.513 C 242.587 54.727,242.469 54.639,241.200 54.215 C 239.450 53.629,232.912 53.403,231.600 53.883 M246.456 55.038 C 246.152 55.703,245.769 55.997,245.391 55.852 C 245.066 55.727,244.800 55.799,244.800 56.013 C 244.800 56.851,246.299 56.341,246.751 55.348 C 247.014 54.770,247.162 54.229,247.080 54.147 C 246.997 54.064,246.717 54.465,246.456 55.038 M194.589 56.418 C 194.447 56.647,194.526 57.069,194.763 57.356 C 195.063 57.717,195.227 68.073,195.298 91.238 L 195.400 124.600 204.760 124.800 C 213.653 124.990,214.136 125.040,214.432 125.800 C 214.603 126.240,214.756 126.390,214.772 126.133 C 214.875 124.421,214.759 124.400,204.957 124.400 L 195.600 124.400 195.600 91.024 C 195.600 67.784,195.470 57.567,195.173 57.383 C 194.938 57.238,194.842 56.867,194.960 56.560 C 195.211 55.906,194.964 55.811,194.589 56.418 M221.000 59.200 C 220.120 59.625,219.597 59.979,219.839 59.986 C 220.342 60.002,222.800 58.827,222.800 58.571 C 222.800 58.332,222.787 58.337,221.000 59.200 M205.917 61.272 C 206.782 61.616,214.291 61.607,215.526 61.260 C 216.035 61.117,213.928 61.000,210.843 61.000 C 207.758 61.000,205.542 61.122,205.917 61.272 M228.647 124.516 C 228.121 124.901,227.983 125.434,228.104 126.616 L 228.266 128.200 228.333 126.500 C 228.370 125.565,228.445 124.762,228.500 124.716 C 228.555 124.670,233.550 124.529,239.600 124.404 L 250.600 124.175 239.976 124.087 C 231.821 124.020,229.189 124.120,228.647 124.516 M122.162 125.300 C 121.406 126.192,121.407 126.194,122.200 125.552 C 122.640 125.196,123.270 124.805,123.600 124.684 C 124.109 124.497,124.104 124.458,123.562 124.432 C 123.211 124.414,122.581 124.805,122.162 125.300 M142.000 124.690 C 145.203 124.897,145.200 124.889,145.200 133.853 C 145.200 138.088,145.335 141.637,145.500 141.739 C 145.665 141.841,145.710 138.279,145.600 133.823 C 145.365 124.314,145.384 124.364,142.051 124.474 L 139.800 124.548 142.000 124.690 M180.182 126.504 C 180.071 126.792,180.034 130.172,180.100 134.014 L 180.220 141.000 180.310 133.700 L 180.400 126.400 186.400 126.400 L 192.400 126.400 192.400 133.967 C 192.400 138.735,192.248 141.609,191.990 141.737 C 191.764 141.849,191.810 141.893,192.090 141.837 C 192.482 141.757,192.600 139.941,192.600 133.967 L 192.600 126.200 186.491 126.090 C 181.742 126.004,180.338 126.096,180.182 126.504 M251.998 148.600 L 251.800 171.000 186.500 171.101 C 150.585 171.157,121.200 171.337,121.200 171.501 C 121.200 172.075,251.317 171.654,251.893 171.079 C 252.302 170.670,252.385 166.031,252.302 148.382 L 252.196 126.200 251.998 148.600 M120.896 144.867 C 120.822 158.393,120.687 162.379,120.300 162.535 C 119.908 162.693,119.911 162.744,120.313 162.768 C 121.187 162.822,121.212 162.255,121.100 144.600 L 120.991 127.400 120.896 144.867 M214.584 134.967 C 214.597 140.634,214.698 141.761,215.200 141.898 C 215.633 142.016,215.664 141.964,215.310 141.713 C 214.967 141.470,214.783 139.394,214.695 134.783 L 214.569 128.200 214.584 134.967 M227.622 136.200 C 227.541 138.400,227.489 140.467,227.508 140.794 C 227.527 141.121,227.330 141.523,227.071 141.688 C 226.722 141.910,226.732 141.989,227.113 141.994 C 227.925 142.004,228.037 141.232,227.899 136.574 L 227.770 132.200 227.622 136.200 M114.711 162.693 C 115.651 162.778,117.091 162.777,117.911 162.691 C 118.730 162.605,117.960 162.536,116.200 162.537 C 114.440 162.539,113.770 162.609,114.711 162.693 M105.010 163.980 C 104.529 164.910,104.417 166.457,104.481 171.280 L 104.561 177.400 104.781 171.000 C 104.921 166.900,105.185 164.277,105.514 163.700 C 105.797 163.205,105.936 162.800,105.824 162.800 C 105.712 162.800,105.346 163.331,105.010 163.980 M255.013 163.179 C 254.777 163.561,255.189 169.874,255.994 178.200 C 256.207 180.400,256.579 185.080,256.821 188.600 C 257.409 197.149,257.949 202.795,258.223 203.237 C 258.353 203.448,268.358 203.600,282.027 203.600 L 305.607 203.600 305.504 183.300 L 305.400 163.000 294.548 162.894 L 283.697 162.787 283.454 163.694 C 283.320 164.192,283.208 167.615,283.205 171.300 L 283.200 178.000 276.609 178.000 L 270.018 178.000 269.909 170.500 L 269.800 163.000 262.529 162.891 C 258.034 162.824,255.165 162.934,255.013 163.179 M269.223 170.800 C 269.346 174.870,269.481 178.245,269.523 178.300 C 269.565 178.355,272.731 178.400,276.557 178.400 C 284.852 178.400,284.042 179.265,283.961 170.494 C 283.913 165.391,284.020 163.835,284.432 163.580 C 285.056 163.194,303.564 163.058,304.538 163.432 C 305.142 163.663,305.200 165.431,305.200 183.446 L 305.200 203.206 281.900 203.103 L 258.600 203.000 258.116 197.000 C 257.849 193.700,257.237 186.230,256.755 180.400 C 256.273 174.570,255.797 168.311,255.698 166.490 L 255.517 163.180 262.259 163.290 L 269.000 163.400 269.223 170.800 M90.890 170.420 C 90.778 178.668,90.150 178.022,98.180 177.912 L 104.600 177.824 98.800 177.715 C 90.344 177.556,91.241 178.397,91.099 170.495 L 90.979 163.800 90.890 170.420 M67.694 183.857 C 67.610 201.469,67.666 203.540,68.233 203.757 C 68.581 203.891,78.976 203.957,91.333 203.905 L 113.800 203.810 91.000 203.605 L 68.200 203.400 67.994 183.800 L 67.789 164.200 67.694 183.857 M122.768 174.100 C 123.431 175.035,124.539 176.430,125.229 177.200 C 126.584 178.713,126.250 178.200,123.342 174.300 C 121.583 171.941,121.122 171.781,122.768 174.100 M129.141 182.300 C 129.871 183.235,130.554 184.000,130.661 184.000 C 130.973 184.000,129.303 181.781,128.526 181.164 C 128.135 180.854,128.412 181.365,129.141 182.300 M131.688 185.413 C 132.286 186.043,132.847 186.477,132.935 186.379 C 133.023 186.280,132.533 185.765,131.847 185.234 L 130.600 184.269 131.688 185.413 M144.500 186.299 C 147.305 186.368,151.895 186.368,154.700 186.299 C 157.505 186.230,155.210 186.174,149.600 186.174 C 143.990 186.174,141.695 186.230,144.500 186.299 M234.400 186.800 C 234.730 187.013,236.652 187.191,238.671 187.194 L 242.342 187.200 242.580 189.300 C 242.710 190.455,243.099 195.360,243.444 200.200 C 243.788 205.040,244.239 211.160,244.446 213.800 C 244.653 216.440,244.981 221.120,245.177 224.200 C 245.544 230.000,247.298 253.634,248.012 262.400 C 249.186 276.828,249.683 283.071,250.018 287.600 C 250.221 290.350,250.570 294.850,250.792 297.600 C 251.015 300.350,251.374 305.120,251.590 308.200 C 251.807 311.280,252.168 316.140,252.394 319.000 C 252.619 321.860,252.982 326.795,253.202 329.967 C 253.421 333.139,253.793 337.320,254.029 339.259 C 254.581 343.804,254.705 343.676,249.858 343.580 C 247.626 343.536,245.530 343.613,245.200 343.750 C 244.870 343.887,237.310 344.059,228.400 344.131 C 219.296 344.206,221.362 344.234,233.117 344.195 C 247.691 344.147,254.167 343.993,254.473 343.687 C 254.792 343.368,254.732 340.970,254.253 334.924 C 253.890 330.346,253.411 324.170,253.189 321.200 C 252.628 313.709,252.091 306.722,251.606 300.600 C 251.379 297.740,250.835 290.270,250.396 284.000 C 249.958 277.730,249.507 271.790,249.394 270.800 C 249.282 269.810,249.007 266.570,248.785 263.600 C 248.562 260.630,248.196 255.950,247.971 253.200 C 247.746 250.450,247.394 245.770,247.189 242.800 C 246.984 239.830,246.722 236.320,246.607 235.000 C 246.492 233.680,246.217 230.080,245.996 227.000 C 245.474 219.737,244.512 207.088,244.019 201.000 C 243.806 198.360,243.516 194.310,243.376 192.001 C 243.023 186.171,243.239 186.399,238.086 186.406 C 235.171 186.410,233.992 186.536,234.400 186.800 M130.124 207.099 L 130.090 210.600 130.389 207.400 C 130.554 205.640,130.569 204.065,130.423 203.899 C 130.278 203.734,130.143 205.174,130.124 207.099 M156.633 211.188 C 157.091 211.373,157.950 212.100,158.542 212.804 L 159.619 214.084 159.509 220.742 L 159.400 227.400 154.300 227.512 L 149.200 227.624 149.115 220.512 L 149.030 213.400 148.815 220.000 C 148.524 228.919,147.905 228.000,154.204 228.000 C 160.566 228.000,160.000 228.745,160.000 220.368 L 160.000 214.002 158.553 212.401 C 157.758 211.521,156.813 210.811,156.453 210.825 C 155.973 210.844,156.021 210.940,156.633 211.188 M181.362 211.700 C 180.604 212.596,180.604 212.597,181.414 211.916 C 182.025 211.403,183.170 211.199,186.014 211.099 L 189.800 210.966 185.962 210.883 C 182.421 210.806,182.065 210.870,181.362 211.700 M214.785 212.029 L 213.400 213.258 215.000 212.145 C 215.880 211.533,216.675 210.980,216.767 210.916 C 216.858 210.852,216.762 210.800,216.552 210.800 C 216.342 210.800,215.547 211.353,214.785 212.029 M219.105 211.083 C 219.602 211.179,220.322 211.175,220.705 211.075 C 221.087 210.975,220.680 210.896,219.800 210.901 C 218.920 210.905,218.607 210.987,219.105 211.083 M129.731 213.800 C 129.733 215.340,129.805 215.921,129.892 215.091 C 129.979 214.261,129.977 213.001,129.889 212.291 C 129.800 211.581,129.729 212.260,129.731 213.800 M222.495 211.826 C 223.962 212.622,224.047 213.154,223.914 220.800 L 223.800 227.400 218.876 227.469 C 215.411 227.518,213.904 227.400,213.790 227.069 C 213.701 226.811,213.469 223.990,213.274 220.800 L 212.919 215.000 212.859 220.824 C 212.781 228.465,212.427 228.055,219.004 227.913 L 224.200 227.800 224.309 220.491 L 224.418 213.182 223.427 212.191 C 222.882 211.646,222.203 211.207,221.918 211.216 C 221.633 211.225,221.893 211.499,222.495 211.826 M191.000 220.201 C 191.000 224.449,191.132 227.717,191.294 227.462 C 191.682 226.852,191.688 212.901,191.300 212.662 C 191.135 212.560,191.000 215.953,191.000 220.201 M118.120 218.698 C 120.055 218.772,123.115 218.771,124.920 218.697 C 126.724 218.623,125.140 218.563,121.400 218.564 C 117.660 218.564,116.184 218.625,118.120 218.698 M77.775 219.240 C 77.407 219.836,76.406 228.954,76.462 231.200 C 76.487 232.190,76.735 230.804,77.013 228.121 C 77.291 225.437,77.644 222.334,77.797 221.225 L 78.074 219.208 95.337 219.100 L 112.600 218.991 95.324 218.896 C 83.093 218.828,77.968 218.929,77.775 219.240 M259.631 219.172 C 259.039 219.547,259.064 219.985,260.409 232.800 C 260.628 234.890,260.806 237.646,260.804 238.923 C 260.802 240.201,260.973 242.901,261.185 244.923 C 261.397 246.946,261.768 251.660,262.010 255.400 C 262.392 261.325,262.947 267.973,263.779 276.600 C 263.907 277.920,264.182 280.890,264.390 283.200 C 264.754 287.232,265.637 296.969,266.402 305.400 C 267.514 317.659,268.755 332.854,269.063 338.000 C 269.202 340.310,269.465 342.605,269.648 343.100 L 269.980 344.000 288.837 344.000 L 307.695 344.000 307.433 340.500 C 307.288 338.575,307.003 335.380,306.799 333.400 C 306.048 326.131,305.570 320.821,304.208 304.600 C 302.899 289.004,301.960 277.992,301.565 273.600 C 301.337 271.070,300.990 267.020,300.792 264.600 C 300.249 257.934,299.620 251.495,299.426 250.600 C 299.330 250.160,298.975 246.560,298.635 242.600 C 298.296 238.640,297.840 233.510,297.622 231.200 C 297.403 228.890,297.120 225.303,296.993 223.230 C 296.865 221.156,296.669 219.311,296.557 219.130 C 296.278 218.679,260.345 218.720,259.631 219.172 M296.146 220.500 C 296.275 221.215,296.563 224.590,296.786 228.000 C 297.181 234.041,297.609 238.861,298.402 246.200 C 298.616 248.180,299.064 252.950,299.397 256.800 C 300.131 265.267,300.703 271.653,301.206 277.000 C 302.165 287.199,302.440 290.295,302.997 297.200 C 303.326 301.270,303.773 306.580,303.992 309.000 C 304.210 311.420,304.483 314.570,304.599 316.000 C 305.459 326.607,306.075 333.150,306.781 339.168 C 307.024 341.241,307.072 343.088,306.888 343.272 C 306.703 343.457,298.373 343.561,288.376 343.504 L 270.200 343.400 269.742 338.400 C 269.491 335.650,269.081 330.610,268.833 327.200 C 267.777 312.722,267.204 305.860,265.993 293.200 C 265.772 290.890,265.413 287.110,265.195 284.800 C 264.978 282.490,264.535 277.810,264.212 274.400 C 263.888 270.990,263.442 266.040,263.220 263.400 C 262.998 260.760,262.710 257.430,262.580 256.000 C 262.451 254.570,262.175 250.790,261.967 247.600 C 261.208 235.927,260.501 226.619,259.945 221.000 C 259.788 219.410,259.513 219.431,282.455 219.286 L 295.911 219.200 296.146 220.500 M75.864 238.551 C 75.701 240.944,75.648 242.981,75.745 243.078 C 75.992 243.326,76.521 235.905,76.322 234.968 C 76.233 234.546,76.026 236.158,75.864 238.551 M272.982 236.964 C 272.181 237.549,271.983 251.299,272.764 252.112 C 272.929 252.283,275.569 252.373,278.632 252.312 L 284.200 252.200 284.309 244.802 C 284.407 238.197,284.345 237.349,283.733 236.902 C 282.724 236.164,274.007 236.214,272.982 236.964 M102.311 237.292 C 102.544 237.573,102.811 238.432,102.903 239.202 C 103.068 240.569,103.073 240.564,103.136 238.943 C 103.183 237.734,103.022 237.217,102.543 237.034 C 102.045 236.842,101.989 236.904,102.311 237.292 M283.732 244.600 L 283.800 251.800 278.400 251.800 L 273.000 251.800 272.890 245.015 C 272.749 236.335,272.162 237.155,278.424 237.288 L 283.665 237.400 283.732 244.600 M91.337 242.200 C 91.339 243.960,91.409 244.630,91.493 243.689 C 91.578 242.749,91.577 241.309,91.491 240.489 C 91.405 239.670,91.336 240.440,91.337 242.200 M75.331 247.800 C 75.333 249.340,75.405 249.921,75.492 249.091 C 75.579 248.261,75.577 247.001,75.489 246.291 C 75.400 245.581,75.329 246.260,75.331 247.800 M90.970 248.800 L 91.000 251.800 96.800 251.800 L 102.600 251.800 102.633 250.000 L 102.665 248.200 102.511 249.900 L 102.356 251.600 96.796 251.600 L 91.235 251.600 91.087 248.700 L 90.939 245.800 90.970 248.800 M74.656 253.445 C 74.515 254.472,74.426 256.412,74.457 257.756 C 74.501 259.662,74.585 259.277,74.835 256.011 C 75.173 251.586,75.085 250.315,74.656 253.445 M73.872 262.604 C 73.727 263.482,73.632 265.460,73.660 267.000 C 73.710 269.700,73.724 269.657,74.048 265.800 C 74.404 261.569,74.314 259.932,73.872 262.604 M72.993 274.538 C 72.838 276.187,72.796 277.775,72.898 278.068 C 73.000 278.361,73.219 277.105,73.385 275.277 C 73.552 273.449,73.594 271.861,73.481 271.747 C 73.367 271.634,73.147 272.889,72.993 274.538 M184.691 274.689 C 185.401 274.777,186.661 274.779,187.491 274.692 C 188.321 274.605,187.740 274.533,186.200 274.531 C 184.660 274.529,183.981 274.600,184.691 274.689 M176.895 276.847 C 175.566 277.532,173.606 279.011,172.539 280.133 L 170.600 282.173 172.800 280.162 C 174.010 279.056,176.035 277.646,177.300 277.029 C 179.298 276.053,179.983 275.600,179.456 275.600 C 179.377 275.600,178.225 276.161,176.895 276.847 M192.800 275.747 C 192.800 275.854,193.835 276.446,195.100 277.063 C 196.502 277.747,198.490 279.281,200.193 280.993 C 201.729 282.537,202.578 283.224,202.079 282.519 C 200.288 279.988,197.372 277.773,193.100 275.698 C 192.935 275.618,192.800 275.640,192.800 275.747 M72.187 284.187 C 72.031 285.644,71.989 286.923,72.095 287.028 C 72.201 287.134,72.410 286.023,72.560 284.560 C 72.710 283.097,72.751 281.818,72.652 281.718 C 72.552 281.619,72.343 282.729,72.187 284.187 M169.584 283.623 C 169.105 284.296,168.779 284.913,168.861 284.994 C 168.943 285.076,169.414 284.526,169.908 283.771 C 171.023 282.071,170.771 281.956,169.584 283.623 M203.600 285.325 C 203.600 285.633,205.560 289.367,205.579 289.096 C 205.606 288.708,203.964 285.200,203.756 285.200 C 203.670 285.200,203.600 285.256,203.600 285.325 M71.724 290.200 C 71.726 291.520,71.801 292.012,71.890 291.293 C 71.979 290.574,71.977 289.494,71.886 288.893 C 71.795 288.292,71.722 288.880,71.724 290.200 M166.744 296.833 C 166.713 300.665,166.578 312.800,166.444 323.800 L 166.200 343.800 142.800 343.800 C 129.930 343.800,107.925 343.721,93.900 343.625 L 68.400 343.450 68.402 341.025 C 68.404 339.691,68.575 337.558,68.784 336.285 C 68.993 335.007,69.014 333.573,68.830 333.085 C 68.443 332.060,68.047 335.241,67.892 340.600 L 67.800 343.800 116.694 344.145 C 143.585 344.335,165.832 344.397,166.131 344.282 C 166.687 344.068,167.570 290.637,167.027 290.093 C 166.902 289.969,166.775 293.002,166.744 296.833 M205.643 316.763 C 205.588 331.478,205.691 343.601,205.872 343.704 C 206.052 343.806,206.740 343.997,207.400 344.128 L 208.600 344.367 207.268 343.769 L 205.935 343.171 206.049 316.800 C 206.112 302.297,206.068 290.335,205.953 290.219 C 205.837 290.104,205.698 302.048,205.643 316.763 M71.092 294.800 C 70.935 296.010,70.829 297.810,70.857 298.800 C 70.893 300.104,71.003 299.717,71.255 297.400 C 71.658 293.711,71.519 291.505,71.092 294.800 M70.301 303.800 C 70.138 305.340,70.029 307.770,70.059 309.200 C 70.104 311.447,70.159 311.230,70.465 307.600 C 70.873 302.740,70.739 299.636,70.301 303.800 M69.402 316.874 C 69.248 319.363,69.188 321.940,69.269 322.600 C 69.350 323.260,69.559 321.306,69.732 318.257 C 69.906 315.209,69.966 312.633,69.865 312.532 C 69.764 312.431,69.556 314.385,69.402 316.874 M68.611 328.211 C 68.453 330.106,68.409 331.742,68.513 331.846 C 68.617 331.950,68.832 330.485,68.989 328.589 C 69.147 326.694,69.191 325.058,69.087 324.954 C 68.983 324.850,68.768 326.315,68.611 328.211 M94.000 360.400 C 30.835 360.625,36.318 360.327,34.121 363.647 C 31.581 367.486,32.995 372.587,37.185 374.700 L 38.970 375.600 186.298 375.600 L 333.627 375.600 335.578 374.611 C 341.457 371.632,341.118 363.608,335.000 360.946 C 333.250 360.185,224.046 359.937,94.000 360.400 M335.884 361.916 C 340.581 365.266,340.119 371.952,335.025 374.346 L 333.209 375.200 186.400 375.200 L 39.591 375.200 37.775 374.346 C 32.793 372.005,32.027 364.960,36.450 362.168 L 37.977 361.204 72.088 361.102 C 90.850 361.046,157.590 361.000,220.400 361.000 L 334.600 361.000 335.884 361.916 " stroke="none" fill="#747b83" fill-rule="evenodd"></path><path id="path4" d="M191.496 12.123 C 192.184 12.631,193.135 13.486,193.609 14.023 L 194.469 15.000 193.645 13.753 C 193.192 13.067,192.372 12.212,191.824 11.853 C 190.318 10.866,190.070 11.071,191.496 12.123 M181.004 13.196 C 180.374 13.854,179.935 14.456,180.029 14.534 C 180.123 14.612,180.713 14.074,181.339 13.338 C 182.754 11.677,182.545 11.588,181.004 13.196 M179.452 16.100 C 179.120 17.340,179.151 19.703,179.506 20.260 C 179.668 20.513,179.801 19.478,179.802 17.960 C 179.804 14.887,179.793 14.828,179.452 16.100 M180.181 35.400 C 180.180 43.320,180.234 46.617,180.299 42.726 C 180.365 38.835,180.365 32.355,180.300 28.326 C 180.234 24.297,180.181 27.480,180.181 35.400 M194.901 23.000 C 194.905 23.880,194.987 24.193,195.083 23.695 C 195.179 23.198,195.175 22.478,195.075 22.095 C 194.975 21.713,194.896 22.120,194.901 23.000 M234.200 23.214 C 233.262 23.391,234.090 23.428,236.200 23.304 C 238.180 23.189,239.875 23.028,239.967 22.947 C 240.252 22.695,235.883 22.898,234.200 23.214 M241.105 23.483 C 241.602 23.579,242.322 23.575,242.705 23.475 C 243.087 23.375,242.680 23.296,241.800 23.301 C 240.920 23.305,240.607 23.387,241.105 23.483 M227.600 24.756 C 224.566 25.886,222.000 27.088,222.000 27.380 C 222.000 27.467,223.417 26.925,225.149 26.174 C 226.881 25.424,229.266 24.549,230.449 24.231 C 231.638 23.911,232.153 23.650,231.600 23.646 C 231.050 23.642,229.250 24.142,227.600 24.756 M246.200 24.400 C 246.640 24.589,247.270 24.744,247.600 24.744 C 247.978 24.744,247.904 24.617,247.400 24.400 C 246.960 24.211,246.330 24.056,246.000 24.056 C 245.622 24.056,245.696 24.183,246.200 24.400 M195.200 25.058 C 195.200 25.274,195.785 25.979,196.500 26.625 L 197.800 27.800 196.600 26.402 C 195.940 25.633,195.355 24.928,195.300 24.835 C 195.245 24.743,195.200 24.843,195.200 25.058 M250.433 25.733 C 250.525 25.806,252.040 26.619,253.800 27.539 C 255.560 28.458,256.640 28.924,256.200 28.573 C 255.329 27.879,250.995 25.600,250.545 25.600 C 250.392 25.600,250.342 25.660,250.433 25.733 M198.000 27.839 C 198.000 28.695,205.807 31.218,208.200 31.135 C 209.453 31.092,209.539 31.050,208.600 30.942 C 205.810 30.620,202.932 29.846,200.547 28.776 C 199.146 28.148,198.000 27.726,198.000 27.839 M218.616 28.879 C 218.184 29.130,217.104 29.562,216.216 29.840 C 215.327 30.119,214.960 30.356,215.400 30.368 C 216.197 30.390,220.562 28.481,219.800 28.444 C 219.580 28.433,219.047 28.629,218.616 28.879 M211.400 30.800 L 209.800 31.086 211.200 31.103 C 211.970 31.113,213.050 30.976,213.600 30.800 C 214.885 30.388,213.699 30.388,211.400 30.800 M260.806 32.084 C 260.803 32.240,261.725 33.230,262.856 34.284 C 265.032 36.312,267.285 39.091,269.615 42.620 C 271.430 45.369,272.034 45.928,270.673 43.600 C 268.730 40.274,260.829 31.053,260.806 32.084 M256.500 46.276 C 256.885 46.376,257.515 46.376,257.900 46.276 C 258.285 46.175,257.970 46.093,257.200 46.093 C 256.430 46.093,256.115 46.175,256.500 46.276 M263.105 46.283 C 263.602 46.379,264.322 46.375,264.705 46.275 C 265.087 46.175,264.680 46.096,263.800 46.101 C 262.920 46.105,262.607 46.187,263.105 46.283 M252.525 47.600 C 251.204 48.261,249.780 49.194,249.362 49.674 C 248.744 50.382,248.870 50.346,250.023 49.485 C 250.805 48.901,252.425 47.978,253.623 47.435 C 254.820 46.891,255.604 46.436,255.364 46.423 C 255.124 46.410,253.847 46.940,252.525 47.600 M267.600 47.190 C 268.810 47.623,269.980 47.975,270.200 47.973 C 270.924 47.965,268.154 46.896,266.762 46.647 C 265.883 46.489,266.180 46.682,267.600 47.190 M246.987 53.074 C 246.385 54.354,245.692 55.532,245.446 55.694 C 245.130 55.902,245.142 55.990,245.489 55.994 C 245.976 56.000,248.568 51.234,248.250 50.916 C 248.158 50.824,247.590 51.795,246.987 53.074 M234.300 53.493 C 235.235 53.577,236.765 53.577,237.700 53.493 C 238.635 53.409,237.870 53.340,236.000 53.340 C 234.130 53.340,233.365 53.409,234.300 53.493 M240.600 54.000 C 241.796 54.514,242.795 54.514,242.000 54.000 C 241.670 53.787,241.040 53.622,240.600 53.634 L 239.800 53.656 240.600 54.000 M194.000 55.975 C 194.000 56.181,194.348 56.324,194.772 56.292 C 195.197 56.260,195.456 56.091,195.349 55.917 C 195.075 55.473,194.000 55.520,194.000 55.975 M225.900 56.229 C 224.405 57.040,224.496 57.378,226.000 56.600 C 226.660 56.259,227.200 55.894,227.200 55.790 C 227.200 55.532,227.157 55.547,225.900 56.229 M196.600 57.028 C 197.574 57.802,201.230 59.703,201.405 59.527 C 201.474 59.457,200.241 58.723,198.665 57.896 C 197.089 57.069,196.160 56.678,196.600 57.028 M222.800 58.000 C 222.030 58.422,221.544 58.774,221.720 58.783 C 222.144 58.805,224.400 57.632,224.400 57.390 C 224.400 57.128,224.377 57.137,222.800 58.000 M203.200 60.200 C 203.970 60.497,204.960 60.741,205.400 60.743 C 205.840 60.745,205.390 60.491,204.400 60.179 C 202.139 59.467,201.333 59.481,203.200 60.200 M216.800 60.220 C 215.619 60.558,215.344 60.736,216.000 60.737 C 216.550 60.738,217.630 60.497,218.400 60.200 C 220.156 59.524,219.189 59.536,216.800 60.220 M208.515 61.096 C 209.788 61.176,211.768 61.175,212.915 61.094 C 214.062 61.014,213.020 60.949,210.600 60.950 C 208.180 60.951,207.242 61.016,208.515 61.096 M131.091 124.689 C 131.801 124.777,133.061 124.779,133.891 124.692 C 134.721 124.605,134.140 124.533,132.600 124.531 C 131.060 124.529,130.381 124.600,131.091 124.689 M178.600 124.800 L 177.400 125.105 178.476 125.153 C 179.068 125.179,179.664 125.020,179.800 124.800 C 179.936 124.580,179.992 124.421,179.924 124.447 C 179.856 124.473,179.260 124.632,178.600 124.800 M234.700 124.699 C 237.615 124.767,242.385 124.767,245.300 124.699 C 248.215 124.631,245.830 124.575,240.000 124.575 C 234.170 124.575,231.785 124.631,234.700 124.699 M144.824 133.919 C 144.948 138.473,145.083 142.245,145.124 142.300 C 145.320 142.558,158.776 142.363,158.939 142.100 C 159.041 141.935,156.036 141.800,152.262 141.800 L 145.400 141.800 145.291 134.011 C 145.231 129.727,145.051 126.091,144.891 125.930 C 144.731 125.769,144.701 129.364,144.824 133.919 M186.600 125.984 L 192.600 126.200 192.813 134.000 L 193.026 141.800 193.113 134.180 C 193.220 124.828,193.810 125.577,186.420 125.684 L 180.600 125.767 186.600 125.984 M251.787 148.200 C 251.787 160.520,251.838 165.618,251.900 159.528 C 251.962 153.439,251.962 143.359,251.900 137.128 C 251.838 130.898,251.787 135.880,251.787 148.200 M121.383 126.900 C 121.278 127.175,121.238 135.140,121.296 144.600 L 121.400 161.800 121.600 144.100 C 121.710 134.365,121.749 126.400,121.687 126.400 C 121.626 126.400,121.489 126.625,121.383 126.900 M179.767 134.200 C 179.767 138.380,179.826 140.036,179.898 137.879 C 179.971 135.723,179.970 132.303,179.898 130.279 C 179.825 128.256,179.766 130.020,179.767 134.200 M227.994 135.400 L 227.800 141.800 221.138 141.800 C 217.474 141.800,214.559 141.935,214.661 142.100 C 215.026 142.689,227.459 142.451,227.962 141.846 C 228.276 141.468,228.384 139.346,228.305 135.146 L 228.188 129.000 227.994 135.400 M180.104 142.237 C 180.379 142.512,192.072 142.461,192.349 142.184 C 192.450 142.083,189.683 142.000,186.200 142.000 C 182.717 142.000,179.973 142.107,180.104 142.237 M113.611 162.700 C 109.546 162.765,106.090 162.950,105.930 163.109 C 105.769 163.269,109.004 163.347,113.117 163.282 C 117.230 163.217,120.768 162.992,120.978 162.782 C 121.188 162.572,121.279 162.441,121.180 162.490 C 121.081 162.540,117.675 162.634,113.611 162.700 M79.400 163.092 C 89.023 163.195,89.426 163.231,90.100 164.044 C 90.485 164.508,90.800 164.702,90.800 164.473 C 90.800 162.929,89.856 162.797,79.471 162.893 L 69.400 162.985 79.400 163.092 M68.445 163.746 C 68.118 164.139,68.021 169.739,68.096 183.846 L 68.200 203.400 88.900 203.405 L 109.600 203.411 89.000 203.302 L 68.400 203.193 68.400 183.676 C 68.400 169.030,68.520 164.040,68.880 163.680 C 69.144 163.416,69.256 163.200,69.129 163.200 C 69.002 163.200,68.694 163.446,68.445 163.746 M300.692 163.898 C 300.231 164.408,300.164 164.793,300.450 165.303 C 301.120 166.501,300.466 166.800,297.176 166.800 L 294.000 166.800 294.000 169.600 L 294.000 172.400 296.800 172.400 L 299.600 172.400 299.600 171.233 C 299.600 169.279,299.970 168.805,301.543 168.743 L 303.000 168.686 301.487 168.443 C 299.629 168.145,299.356 167.443,301.033 167.280 C 302.256 167.160,302.265 167.143,301.996 165.376 C 301.664 163.189,301.501 163.004,300.692 163.898 M299.200 171.024 C 299.200 171.625,298.969 172.000,298.600 172.000 C 298.001 172.000,297.741 170.393,298.256 169.878 C 298.709 169.424,299.200 170.020,299.200 171.024 M120.800 171.515 C 120.800 171.908,121.351 172.853,122.024 173.615 L 123.248 175.000 122.224 173.407 C 121.661 172.531,121.200 171.677,121.200 171.508 C 121.200 171.340,150.585 171.156,186.500 171.100 L 251.800 170.998 186.300 170.899 C 123.622 170.804,120.800 170.831,120.800 171.515 M295.600 171.400 C 295.600 171.730,295.330 172.000,295.000 172.000 C 294.670 172.000,294.400 171.730,294.400 171.400 C 294.400 171.070,294.670 170.800,295.000 170.800 C 295.330 170.800,295.600 171.070,295.600 171.400 M287.879 174.256 C 287.951 175.465,287.873 176.385,287.705 176.300 C 287.537 176.216,286.988 176.544,286.485 177.029 C 285.187 178.281,286.232 179.399,288.370 179.045 C 289.156 178.915,290.205 178.807,290.700 178.804 C 291.554 178.800,291.600 178.645,291.600 175.750 L 291.600 172.700 290.458 172.928 C 289.784 173.063,288.995 172.932,288.532 172.607 C 287.777 172.078,287.752 172.141,287.879 174.256 M284.063 175.000 C 284.063 175.660,284.154 175.974,284.266 175.698 C 284.377 175.421,284.633 175.297,284.834 175.421 C 285.035 175.545,285.200 175.356,285.200 175.000 C 285.200 174.644,285.035 174.455,284.834 174.579 C 284.633 174.703,284.377 174.579,284.266 174.302 C 284.154 174.026,284.063 174.340,284.063 175.000 M124.280 176.692 C 125.729 178.622,126.472 179.529,127.809 181.000 C 129.308 182.649,128.568 181.554,125.849 178.100 C 123.507 175.125,122.269 174.014,124.280 176.692 M90.800 177.512 C 90.800 178.580,104.422 178.755,104.637 177.690 C 104.694 177.410,104.649 177.365,104.537 177.590 C 104.233 178.201,91.896 178.136,91.280 177.520 C 90.915 177.155,90.800 177.153,90.800 177.512 M282.976 179.787 C 282.549 180.110,282.389 180.380,282.620 180.387 C 282.851 180.394,283.282 180.175,283.577 179.900 C 283.872 179.625,283.779 179.985,283.371 180.700 L 282.628 182.000 277.334 182.000 C 272.759 182.000,271.988 181.907,271.658 181.317 C 271.378 180.817,271.239 181.351,271.138 183.318 L 271.000 186.002 280.300 186.001 L 289.600 186.000 289.600 183.151 C 289.600 180.674,289.522 180.367,289.005 180.796 C 288.522 181.197,288.362 181.166,288.157 180.633 C 287.924 180.025,287.870 180.025,287.426 180.632 C 286.769 181.530,285.429 181.197,285.272 180.096 C 285.124 179.055,284.122 178.921,282.976 179.787 M289.200 183.600 C 289.200 185.111,289.053 185.600,288.600 185.600 C 287.979 185.600,287.697 182.436,288.267 181.867 C 288.917 181.216,289.200 181.741,289.200 183.600 M134.900 186.696 C 136.165 186.775,138.235 186.775,139.500 186.696 C 140.765 186.616,139.730 186.551,137.200 186.551 C 134.670 186.551,133.635 186.616,134.900 186.696 M146.691 186.689 C 147.401 186.777,148.661 186.779,149.491 186.692 C 150.321 186.605,149.740 186.533,148.200 186.531 C 146.660 186.529,145.981 186.600,146.691 186.689 M154.291 186.689 C 155.001 186.777,156.261 186.779,157.091 186.692 C 157.921 186.605,157.340 186.533,155.800 186.531 C 154.260 186.529,153.581 186.600,154.291 186.689 M197.253 186.700 C 229.608 186.792,233.965 186.876,234.414 187.417 C 234.694 187.754,235.049 189.599,235.203 191.515 C 235.406 194.044,235.498 194.438,235.541 192.950 C 235.573 191.823,235.710 190.349,235.845 189.677 C 236.040 188.702,235.881 188.245,235.063 187.427 L 234.036 186.400 197.318 186.498 L 160.600 186.596 197.253 186.700 M260.058 186.902 C 259.739 187.221,259.753 187.507,260.110 187.947 C 260.499 188.428,260.497 188.492,260.100 188.253 C 259.742 188.038,259.600 188.313,259.600 189.219 C 259.600 190.182,259.456 190.430,258.999 190.255 C 258.509 190.067,258.528 190.223,259.098 191.093 C 259.752 192.092,259.753 192.144,259.112 191.898 C 258.734 191.753,258.319 191.807,258.189 192.017 C 258.056 192.233,258.563 192.400,259.350 192.400 C 260.577 192.400,260.762 192.266,260.873 191.300 C 261.029 189.945,261.754 190.006,261.927 191.388 C 262.041 192.300,262.219 192.395,263.727 192.346 C 264.753 192.312,265.013 192.227,264.400 192.126 C 262.552 191.821,262.221 191.619,262.733 191.107 C 263.082 190.758,263.315 190.755,263.654 191.094 C 264.366 191.806,265.200 190.691,265.200 189.029 C 265.200 187.602,265.197 187.600,263.400 187.600 C 262.410 187.600,261.600 187.439,261.600 187.243 C 261.600 186.662,260.534 186.426,260.058 186.902 M235.865 203.400 C 235.992 205.600,236.164 207.475,236.248 207.567 C 236.556 207.904,236.309 201.367,235.977 200.400 C 235.769 199.794,235.725 200.975,235.865 203.400 M127.400 203.227 C 126.796 203.507,126.923 203.540,127.916 203.364 C 128.785 203.209,129.563 203.346,130.204 203.766 C 130.973 204.270,131.131 204.285,130.960 203.841 C 130.597 202.895,128.789 202.583,127.400 203.227 M123.900 203.482 C 124.395 203.578,125.205 203.578,125.700 203.482 C 126.195 203.387,125.790 203.309,124.800 203.309 C 123.810 203.309,123.405 203.387,123.900 203.482 M130.241 209.542 C 130.082 212.041,130.034 214.168,130.136 214.269 C 130.388 214.521,130.935 206.204,130.710 205.536 C 130.611 205.241,130.400 207.044,130.241 209.542 M236.626 212.800 C 236.727 214.450,236.981 218.500,237.189 221.800 C 237.398 225.100,237.770 231.130,238.017 235.200 C 238.668 245.934,239.189 250.191,238.947 242.800 C 238.843 239.610,238.707 236.190,238.646 235.200 C 238.387 231.017,238.380 224.076,238.633 222.500 C 238.860 221.083,238.797 220.800,238.253 220.800 C 237.794 220.800,237.600 220.443,237.600 219.600 C 237.600 218.910,237.812 218.397,238.100 218.394 C 238.468 218.389,238.457 218.297,238.057 218.044 C 237.641 217.780,237.628 217.630,238.000 217.400 C 238.379 217.166,238.378 217.033,237.993 216.795 C 237.722 216.628,237.424 215.975,237.330 215.345 C 236.567 210.189,236.436 209.714,236.626 212.800 M153.700 210.687 C 154.305 210.778,155.295 210.778,155.900 210.687 C 156.505 210.595,156.010 210.520,154.800 210.520 C 153.590 210.520,153.095 210.595,153.700 210.687 M216.900 210.676 C 217.285 210.776,217.915 210.776,218.300 210.676 C 218.685 210.575,218.370 210.493,217.600 210.493 C 216.830 210.493,216.515 210.575,216.900 210.676 M158.425 212.231 C 159.181 213.128,159.881 213.797,159.980 213.717 C 160.079 213.638,159.460 212.904,158.605 212.087 L 157.050 210.600 158.425 212.231 M180.829 211.854 C 180.062 212.829,180.003 213.402,180.040 219.554 C 180.096 228.965,179.577 228.177,185.814 228.313 C 192.450 228.457,192.023 229.036,191.918 220.024 L 191.835 213.000 191.595 220.400 C 191.462 224.470,191.319 227.845,191.277 227.900 C 191.235 227.955,188.884 228.000,186.054 228.000 L 180.909 228.000 180.717 226.300 C 180.249 222.138,180.726 212.345,181.436 211.560 C 181.814 211.142,182.019 210.800,181.891 210.800 C 181.763 210.800,181.285 211.274,180.829 211.854 M213.923 212.300 C 213.218 213.121,212.690 214.000,212.901 214.000 C 212.983 214.000,213.449 213.460,213.937 212.800 C 214.901 211.496,214.892 211.172,213.923 212.300 M223.786 212.444 C 224.313 213.314,224.401 214.687,224.309 220.644 L 224.200 227.800 219.004 227.913 C 214.467 228.011,213.744 227.938,213.304 227.336 C 213.027 226.957,212.800 226.825,212.800 227.044 C 212.800 228.149,213.909 228.400,218.800 228.400 C 222.187 228.400,223.997 228.243,224.320 227.920 C 225.263 226.977,224.966 213.478,223.976 212.344 L 223.153 211.400 223.786 212.444 M148.562 220.200 C 148.562 223.720,148.624 225.106,148.698 223.281 C 148.772 221.456,148.772 218.576,148.697 216.881 C 148.622 215.186,148.561 216.680,148.562 220.200 M212.520 216.400 C 212.520 217.610,212.595 218.105,212.687 217.500 C 212.778 216.895,212.778 215.905,212.687 215.300 C 212.595 214.695,212.520 215.190,212.520 216.400 M129.654 217.467 C 129.625 218.163,129.375 218.824,129.100 218.935 C 128.708 219.093,128.711 219.144,129.113 219.168 C 129.771 219.209,130.112 218.312,129.886 217.129 C 129.748 216.403,129.697 216.477,129.654 217.467 M116.300 219.098 C 118.555 219.170,122.245 219.170,124.500 219.098 C 126.755 219.027,124.910 218.969,120.400 218.969 C 115.890 218.969,114.045 219.027,116.300 219.098 M77.701 223.000 C 77.705 223.880,77.787 224.193,77.883 223.695 C 77.979 223.198,77.975 222.478,77.875 222.095 C 77.775 221.713,77.696 222.120,77.701 223.000 M148.528 227.400 C 148.631 228.393,159.637 228.675,159.837 227.690 C 159.894 227.410,159.849 227.365,159.737 227.590 C 159.341 228.388,148.893 228.115,148.652 227.300 C 148.492 226.756,148.464 226.778,148.528 227.400 M76.893 231.200 C 76.893 231.970,76.975 232.285,77.076 231.900 C 77.176 231.515,77.176 230.885,77.076 230.500 C 76.975 230.115,76.893 230.430,76.893 231.200 M76.501 235.800 C 76.505 236.680,76.587 236.993,76.683 236.495 C 76.779 235.998,76.775 235.278,76.675 234.895 C 76.575 234.513,76.496 234.920,76.501 235.800 M102.667 237.073 C 102.925 237.257,103.217 238.035,103.318 238.803 C 103.494 240.141,103.500 240.134,103.451 238.631 C 103.418 237.607,103.192 237.006,102.800 236.900 C 102.391 236.790,102.349 236.845,102.667 237.073 M91.056 238.884 C 90.921 239.388,90.833 240.610,90.860 241.600 C 90.903 243.174,90.947 243.073,91.209 240.800 C 91.524 238.066,91.467 237.350,91.056 238.884 M75.790 243.390 C 75.632 245.505,75.589 247.323,75.695 247.429 C 75.802 247.535,76.016 245.889,76.171 243.771 C 76.327 241.654,76.370 239.836,76.266 239.733 C 76.163 239.630,75.949 241.276,75.790 243.390 M102.942 243.800 C 102.941 245.780,103.008 246.640,103.092 245.712 C 103.176 244.784,103.177 243.164,103.095 242.112 C 103.012 241.060,102.943 241.820,102.942 243.800 M239.396 253.600 C 239.496 255.910,239.857 261.490,240.199 266.000 C 241.081 277.656,241.541 284.641,242.031 293.796 C 242.266 298.194,242.558 301.884,242.679 301.996 C 242.800 302.108,242.773 299.140,242.620 295.400 C 242.356 288.996,242.226 286.683,241.776 280.400 C 241.674 278.970,241.498 276.090,241.385 274.000 C 241.272 271.910,241.086 269.390,240.973 268.400 C 240.859 267.410,240.670 263.817,240.554 260.415 C 240.437 257.013,240.088 253.143,239.777 251.815 L 239.213 249.400 239.396 253.600 M75.012 253.812 C 74.855 255.488,74.811 256.944,74.914 257.048 C 75.018 257.151,75.231 255.864,75.388 254.188 C 75.545 252.512,75.589 251.056,75.486 250.952 C 75.382 250.849,75.169 252.136,75.012 253.812 M101.000 252.000 L 99.400 252.286 100.876 252.343 C 101.688 252.374,102.464 252.220,102.600 252.000 C 102.736 251.780,102.792 251.626,102.724 251.657 C 102.656 251.688,101.880 251.842,101.000 252.000 M95.905 252.283 C 96.402 252.379,97.122 252.375,97.505 252.275 C 97.887 252.175,97.480 252.096,96.600 252.101 C 95.720 252.105,95.407 252.187,95.905 252.283 M292.984 252.425 C 292.840 252.659,293.010 253.169,293.362 253.558 C 294.073 254.344,293.843 254.800,292.733 254.800 C 292.330 254.800,292.000 254.980,292.000 255.200 C 292.000 255.568,292.567 255.763,293.300 255.647 C 293.465 255.621,293.600 255.780,293.600 256.000 C 293.600 256.741,290.956 256.435,290.208 255.608 C 289.634 254.975,289.602 254.781,290.046 254.640 C 290.350 254.543,290.870 254.373,291.200 254.263 C 291.530 254.153,291.215 254.049,290.500 254.032 L 289.200 254.000 289.200 256.800 C 289.200 259.325,289.634 260.415,290.117 259.100 C 290.263 258.700,290.406 258.700,290.830 259.100 C 292.033 260.235,295.200 259.727,295.200 258.400 C 295.200 257.740,295.359 257.200,295.553 257.200 C 295.748 257.200,296.004 256.830,296.122 256.377 C 296.298 255.702,296.235 255.639,295.769 256.026 C 295.396 256.335,295.200 256.351,295.200 256.073 C 295.200 255.839,295.380 255.536,295.600 255.400 C 295.820 255.264,296.000 254.703,296.000 254.153 C 296.000 253.588,295.826 253.260,295.600 253.400 C 295.380 253.536,295.200 253.277,295.200 252.824 C 295.200 251.926,293.484 251.617,292.984 252.425 M275.900 253.889 C 276.615 253.978,277.785 253.978,278.500 253.889 C 279.215 253.801,278.630 253.728,277.200 253.728 C 275.770 253.728,275.185 253.801,275.900 253.889 M273.500 255.632 C 272.999 255.924,272.800 256.547,272.800 257.820 L 272.800 259.600 275.376 259.600 C 276.793 259.600,278.069 259.411,278.212 259.181 C 278.389 258.894,278.650 258.909,279.036 259.230 C 279.509 259.623,279.590 259.385,279.536 257.749 C 279.487 256.250,279.434 256.106,279.309 257.124 C 279.092 258.882,278.236 258.566,278.076 256.669 C 277.943 255.102,275.400 254.526,273.500 255.632 M291.200 257.576 C 291.200 258.117,290.471 258.491,289.993 258.196 C 289.770 258.058,289.691 257.777,289.817 257.572 C 290.117 257.087,291.200 257.090,291.200 257.576 M293.612 257.800 C 293.594 258.398,291.894 258.283,291.690 257.669 C 291.566 257.298,291.831 257.178,292.569 257.269 C 293.150 257.341,293.619 257.580,293.612 257.800 M74.189 264.189 C 74.032 266.085,73.989 267.723,74.095 267.829 C 74.201 267.935,74.414 266.468,74.568 264.568 C 74.723 262.669,74.765 261.032,74.663 260.929 C 74.560 260.827,74.347 262.294,74.189 264.189 M73.709 272.800 C 73.709 273.790,73.787 274.195,73.882 273.700 C 73.978 273.205,73.978 272.395,73.882 271.900 C 73.787 271.405,73.709 271.810,73.709 272.800 M185.305 274.287 C 185.914 274.379,186.814 274.377,187.305 274.282 C 187.797 274.187,187.300 274.111,186.200 274.114 C 185.100 274.117,184.697 274.195,185.305 274.287 M181.400 274.800 L 180.600 275.144 181.400 275.144 C 181.840 275.144,182.560 274.989,183.000 274.800 L 183.800 274.456 183.000 274.456 C 182.560 274.456,181.840 274.611,181.400 274.800 M189.600 274.800 C 191.142 275.294,191.964 275.294,191.200 274.800 C 190.870 274.587,190.150 274.427,189.600 274.446 L 188.600 274.480 189.600 274.800 M72.996 278.506 C 72.842 280.356,72.789 282.214,72.878 282.635 C 72.967 283.056,73.171 281.620,73.332 279.445 C 73.492 277.270,73.546 275.412,73.450 275.317 C 73.355 275.221,73.150 276.657,72.996 278.506 M176.900 276.412 C 175.745 277.074,174.800 277.717,174.800 277.841 C 174.800 277.964,175.385 277.707,176.100 277.269 C 176.815 276.831,178.030 276.201,178.800 275.869 C 179.570 275.537,179.930 275.252,179.600 275.236 C 179.270 275.221,178.055 275.749,176.900 276.412 M194.400 276.194 C 194.400 276.287,195.013 276.653,195.763 277.009 C 196.512 277.365,198.267 278.667,199.663 279.903 C 201.714 281.719,201.893 281.822,200.600 280.438 C 198.544 278.238,194.400 275.402,194.400 276.194 M122.667 276.667 C 122.520 276.813,122.389 278.028,122.375 279.367 C 122.354 281.354,122.278 281.622,121.961 280.829 C 121.748 280.296,121.600 279.576,121.633 279.229 C 121.754 277.941,121.580 277.600,120.800 277.600 C 120.262 277.600,120.000 277.867,120.000 278.415 C 120.000 279.254,118.397 279.329,116.200 278.593 C 115.743 278.439,115.579 278.469,115.817 278.662 C 116.182 278.959,116.505 282.400,116.168 282.400 C 116.096 282.400,115.624 282.232,115.119 282.028 C 114.613 281.823,113.705 281.549,113.100 281.420 C 111.719 281.125,111.621 280.000,112.976 280.000 C 114.285 280.000,114.638 279.325,113.506 278.986 C 113.008 278.837,112.289 278.329,111.909 277.857 C 111.154 276.921,111.187 276.796,110.998 281.290 C 110.973 281.890,110.828 282.505,110.676 282.657 C 110.524 282.809,110.400 283.656,110.400 284.540 C 110.400 285.423,110.195 287.742,109.945 289.693 L 109.490 293.240 107.045 295.568 C 105.700 296.849,103.160 299.206,101.400 300.806 C 97.370 304.470,78.392 323.725,78.603 323.936 C 78.689 324.023,80.822 321.981,83.342 319.399 C 85.862 316.818,88.102 314.816,88.319 314.950 C 88.537 315.084,89.088 314.400,89.545 313.428 C 90.013 312.432,90.750 311.543,91.235 311.389 C 92.360 311.032,94.400 309.070,94.400 308.346 C 94.400 307.792,95.743 306.400,96.276 306.400 C 96.423 306.400,97.117 305.815,97.819 305.100 C 100.592 302.273,102.019 301.044,102.632 300.954 C 102.985 300.902,103.175 300.958,103.056 301.078 C 102.833 301.301,103.760 302.400,104.171 302.400 C 104.297 302.400,104.400 302.132,104.400 301.805 C 104.400 301.271,104.983 300.391,106.222 299.055 C 106.455 298.805,106.754 298.311,106.888 297.957 C 107.022 297.604,107.821 296.956,108.664 296.518 C 109.692 295.985,110.462 295.170,110.999 294.047 C 111.527 292.942,112.141 292.285,112.800 292.119 C 114.258 291.752,114.714 290.916,114.398 289.187 C 114.122 287.680,114.226 287.493,115.927 286.445 C 116.216 286.266,116.494 285.841,116.544 285.500 C 116.594 285.160,116.874 284.593,117.167 284.240 C 117.606 283.711,117.607 283.600,117.169 283.600 C 116.784 283.600,116.760 283.480,117.080 283.160 C 117.707 282.533,119.245 283.117,119.111 283.930 C 119.031 284.411,119.243 284.566,119.864 284.481 C 120.887 284.340,122.059 285.782,121.694 286.732 C 121.500 287.237,121.356 287.147,121.013 286.308 C 120.692 285.522,120.426 285.337,120.000 285.600 C 119.502 285.908,119.507 285.989,120.034 286.192 C 120.938 286.539,120.972 289.264,120.092 290.863 C 119.509 291.921,119.441 292.434,119.763 293.324 C 120.082 294.202,120.043 294.528,119.585 294.817 C 119.073 295.141,119.295 295.356,120.048 295.265 C 120.184 295.248,120.274 296.127,120.248 297.217 C 120.221 298.307,120.020 299.202,119.800 299.206 C 119.580 299.209,119.670 299.387,120.000 299.600 C 120.330 299.813,120.400 299.991,120.155 299.994 C 119.649 300.001,119.742 301.449,120.400 303.799 C 120.689 304.833,120.724 305.970,120.499 307.001 C 120.306 307.880,120.279 309.217,120.438 309.971 C 120.823 311.792,120.557 319.493,119.989 323.000 C 119.739 324.540,119.473 327.060,119.397 328.600 C 118.888 338.944,118.738 339.826,117.295 340.992 C 116.662 341.503,118.358 343.478,119.712 343.806 C 120.200 343.924,130.860 343.971,143.400 343.911 L 166.200 343.800 166.207 328.200 L 166.214 312.600 166.103 328.100 L 165.991 343.600 142.819 343.600 C 128.404 343.600,119.557 343.454,119.409 343.215 C 119.164 342.818,119.701 333.415,120.392 326.000 C 120.607 323.690,120.976 318.740,121.211 315.000 C 121.447 311.260,121.810 306.130,122.019 303.600 C 122.505 297.718,123.134 288.025,123.454 281.500 C 123.687 276.757,123.531 275.802,122.667 276.667 M172.362 279.900 C 170.784 281.559,168.740 284.080,169.849 283.000 C 171.041 281.840,174.492 278.000,174.343 278.000 C 174.248 278.000,173.356 278.855,172.362 279.900 M203.231 284.327 C 203.940 285.467,204.594 286.400,204.685 286.400 C 204.973 286.400,203.053 283.176,202.485 282.704 C 202.187 282.457,202.522 283.187,203.231 284.327 M115.443 284.233 C 115.309 284.581,115.200 284.963,115.200 285.082 C 115.200 285.201,114.921 285.067,114.581 284.784 C 114.087 284.374,114.067 284.204,114.481 283.941 C 115.301 283.421,115.707 283.544,115.443 284.233 M72.194 287.338 C 72.038 289.205,71.995 290.973,72.097 291.266 C 72.200 291.560,72.420 290.125,72.586 288.078 C 72.752 286.030,72.796 284.262,72.683 284.149 C 72.569 284.036,72.349 285.471,72.194 287.338 M168.022 285.898 C 166.579 289.025,166.408 290.547,166.487 299.600 L 166.566 308.600 166.785 299.000 C 166.984 290.296,167.087 289.197,167.893 287.224 C 168.815 284.963,168.912 283.968,168.022 285.898 M117.600 285.915 C 117.600 286.088,117.964 286.257,118.409 286.291 C 118.853 286.324,119.113 286.182,118.985 285.976 C 118.704 285.521,117.600 285.473,117.600 285.915 M205.882 290.600 C 206.009 291.700,206.177 292.675,206.256 292.767 C 206.555 293.114,206.328 290.164,205.997 289.400 C 205.774 288.885,205.733 289.313,205.882 290.600 M71.400 296.000 C 71.241 298.005,71.202 299.735,71.312 299.845 C 71.422 299.955,71.641 298.405,71.800 296.400 C 71.959 294.395,71.998 292.665,71.888 292.555 C 71.778 292.445,71.559 293.995,71.400 296.000 M113.600 293.951 C 113.600 294.439,113.855 294.800,114.200 294.800 C 114.530 294.800,114.800 294.642,114.800 294.449 C 114.800 294.256,114.530 293.874,114.200 293.600 C 113.699 293.184,113.600 293.242,113.600 293.951 M206.524 295.400 C 206.526 296.720,206.601 297.212,206.690 296.493 C 206.779 295.774,206.777 294.694,206.686 294.093 C 206.595 293.492,206.522 294.080,206.524 295.400 M206.091 321.076 C 206.041 333.218,206.135 343.236,206.300 343.338 C 206.572 343.507,206.568 326.856,206.290 306.800 C 206.231 302.510,206.141 308.934,206.091 321.076 M70.595 306.137 C 70.438 308.661,70.390 310.968,70.490 311.263 C 70.590 311.558,70.802 309.577,70.962 306.860 C 71.122 304.143,71.169 301.836,71.068 301.734 C 70.966 301.632,70.753 303.614,70.595 306.137 M242.840 306.337 C 242.818 307.512,242.979 310.572,243.198 313.137 C 243.563 317.405,244.388 329.291,245.029 339.500 L 245.286 343.600 226.343 343.696 L 207.400 343.792 226.176 343.900 C 238.429 343.970,245.092 343.868,245.356 343.604 C 245.578 343.382,246.084 343.200,246.480 343.200 C 247.413 343.200,247.463 341.387,246.544 340.873 C 246.004 340.571,245.937 340.124,246.166 338.353 C 246.432 336.286,246.539 325.845,246.311 324.210 C 246.250 323.775,246.425 323.392,246.700 323.360 C 246.975 323.327,247.416 323.278,247.680 323.250 C 248.053 323.211,248.053 323.093,247.680 322.720 C 247.416 322.456,247.200 321.753,247.200 321.157 C 247.200 320.272,247.054 320.113,246.400 320.284 C 245.834 320.432,245.600 320.296,245.600 319.820 C 245.600 318.601,246.366 317.613,247.106 317.879 C 247.488 318.015,247.671 317.985,247.514 317.811 C 247.357 317.637,247.420 317.136,247.655 316.697 C 247.978 316.095,247.950 315.816,247.545 315.566 C 247.116 315.301,247.108 315.132,247.503 314.737 C 247.777 314.463,248.000 314.115,248.000 313.962 C 248.000 313.487,244.763 314.614,244.377 315.223 C 244.104 315.654,244.011 315.528,244.006 314.723 C 244.003 314.100,244.332 313.413,244.787 313.094 C 245.612 312.517,245.587 310.486,244.749 309.968 C 244.528 309.832,244.296 309.468,244.234 309.160 C 244.172 308.852,244.006 308.330,243.866 308.000 C 243.726 307.670,243.447 306.680,243.246 305.800 L 242.880 304.200 242.840 306.337 M69.798 317.300 C 69.641 320.022,69.587 322.599,69.678 323.025 C 69.768 323.451,69.979 321.306,70.145 318.257 C 70.312 315.209,70.366 312.633,70.266 312.532 C 70.166 312.432,69.955 314.578,69.798 317.300 M246.800 315.724 C 246.800 316.011,246.536 316.596,246.213 317.024 C 245.657 317.758,245.625 317.730,245.613 316.500 C 245.604 315.605,245.787 315.200,246.200 315.200 C 246.530 315.200,246.800 315.436,246.800 315.724 M69.314 325.800 C 69.317 326.900,69.395 327.303,69.487 326.695 C 69.579 326.086,69.577 325.186,69.482 324.695 C 69.387 324.203,69.311 324.700,69.314 325.800 M74.127 328.335 C 71.496 331.170,71.270 332.320,73.864 329.676 C 75.653 327.851,77.363 325.584,76.912 325.635 C 76.740 325.654,75.487 326.869,74.127 328.335 M68.739 330.438 C 68.662 331.560,68.732 332.685,68.894 332.938 C 69.056 333.192,69.191 332.275,69.194 330.900 C 69.201 327.885,68.931 327.611,68.739 330.438 M294.000 337.600 L 294.000 341.200 298.567 341.200 C 301.079 341.200,303.464 341.307,303.867 341.438 C 304.407 341.613,304.459 341.574,304.066 341.293 C 303.772 341.083,303.502 340.770,303.466 340.599 C 303.430 340.427,302.005 340.324,300.300 340.369 C 297.978 340.430,297.192 340.319,297.170 339.925 C 297.153 339.636,297.165 338.185,297.196 336.700 L 297.254 334.000 295.627 334.000 L 294.000 334.000 294.000 337.600 M300.400 334.600 C 300.400 334.930,300.670 335.200,301.000 335.200 C 301.330 335.200,301.600 334.930,301.600 334.600 C 301.600 334.270,301.330 334.000,301.000 334.000 C 300.670 334.000,300.400 334.270,300.400 334.600 M270.648 336.706 C 270.480 337.204,270.175 337.508,269.971 337.382 C 269.482 337.080,269.503 337.349,270.064 338.581 C 270.583 339.719,271.324 339.997,270.913 338.900 C 270.693 338.313,270.749 338.280,271.262 338.697 C 271.947 339.252,272.403 338.985,272.394 338.033 C 272.389 337.487,272.336 337.481,272.015 337.989 C 271.608 338.633,271.420 338.347,271.101 336.600 C 270.963 335.849,270.936 335.855,270.648 336.706 M108.400 342.800 C 108.400 343.040,110.008 343.200,112.424 343.200 C 115.004 343.200,116.359 343.057,116.200 342.800 C 116.063 342.579,114.263 342.400,112.176 342.400 C 109.925 342.400,108.400 342.562,108.400 342.800 M77.505 343.083 C 78.002 343.179,78.722 343.175,79.105 343.075 C 79.487 342.975,79.080 342.896,78.200 342.901 C 77.320 342.905,77.007 342.987,77.505 343.083 M274.700 343.093 C 275.635 343.177,277.165 343.177,278.100 343.093 C 279.035 343.009,278.270 342.940,276.400 342.940 C 274.530 342.940,273.765 343.009,274.700 343.093 M296.300 343.096 C 297.675 343.174,299.925 343.174,301.300 343.096 C 302.675 343.018,301.550 342.954,298.800 342.954 C 296.050 342.954,294.925 343.018,296.300 343.096 M43.200 361.600 C 42.870 361.813,41.925 361.991,41.100 361.994 C 40.275 361.997,39.600 362.180,39.600 362.400 C 39.600 362.620,40.317 362.800,41.192 362.800 C 42.887 362.800,42.928 362.857,43.354 365.800 C 43.450 366.460,43.498 366.145,43.461 365.100 C 43.424 364.055,43.541 363.200,43.721 363.200 C 43.900 363.200,43.963 363.065,43.861 362.900 C 43.758 362.735,44.963 362.600,46.537 362.600 C 48.702 362.600,49.373 362.471,49.290 362.070 C 49.230 361.779,49.328 361.632,49.509 361.744 C 49.690 361.856,50.100 361.782,50.419 361.580 C 50.826 361.322,50.499 361.210,49.324 361.206 C 48.402 361.203,47.536 361.380,47.400 361.600 C 47.264 361.820,46.533 362.000,45.776 362.000 C 45.019 362.000,44.400 361.820,44.400 361.600 C 44.400 361.099,43.976 361.099,43.200 361.600 M36.600 362.400 C 36.440 362.658,36.490 363.050,36.710 363.270 C 36.976 363.536,37.206 363.513,37.400 363.200 C 37.560 362.942,37.510 362.550,37.290 362.330 C 37.024 362.064,36.794 362.087,36.600 362.400 M49.864 363.470 C 49.716 363.618,48.516 363.695,47.197 363.641 L 44.800 363.543 44.800 365.384 C 44.800 366.652,44.613 367.297,44.200 367.455 C 43.870 367.582,43.600 367.893,43.600 368.147 C 43.600 368.807,45.104 369.678,45.405 369.192 C 45.538 368.976,45.862 368.803,46.124 368.806 C 46.410 368.810,46.361 368.967,46.000 369.200 C 45.534 369.501,45.651 369.589,46.524 369.594 C 47.172 369.597,47.543 369.431,47.400 369.200 C 47.242 368.945,48.470 368.800,50.800 368.800 C 52.806 368.800,54.358 368.944,54.249 369.120 C 54.141 369.296,54.478 369.440,55.000 369.440 C 55.522 369.440,55.859 369.296,55.751 369.120 C 55.642 368.944,55.934 368.800,56.400 368.800 C 56.866 368.800,57.146 368.964,57.022 369.165 C 56.766 369.579,57.829 369.504,58.255 369.078 C 58.705 368.628,62.881 368.745,62.600 369.200 C 62.464 369.420,62.734 369.600,63.200 369.600 C 63.666 369.600,63.943 369.432,63.816 369.226 C 63.689 369.020,64.173 368.795,64.892 368.726 C 65.723 368.646,66.200 368.384,66.200 368.009 C 66.200 367.273,63.959 367.030,63.513 367.717 C 63.274 368.086,63.118 368.072,62.850 367.658 C 62.474 367.075,59.265 367.164,57.834 367.797 C 57.249 368.056,57.146 368.011,57.397 367.605 C 57.646 367.203,57.516 367.138,56.863 367.337 C 56.388 367.482,55.612 367.718,55.137 367.863 C 54.520 368.051,54.360 367.989,54.574 367.642 C 54.779 367.310,54.580 367.184,53.936 367.241 C 51.934 367.419,51.600 367.242,51.600 366.000 C 51.600 365.340,51.420 364.800,51.200 364.800 C 50.980 364.800,50.800 364.440,50.800 364.000 C 50.800 363.201,50.374 362.960,49.864 363.470 M35.722 364.657 C 35.460 364.764,35.344 365.110,35.465 365.426 C 35.785 366.260,36.229 366.129,36.229 365.200 C 36.229 364.760,36.222 364.414,36.214 364.432 C 36.206 364.449,35.985 364.551,35.722 364.657 M34.000 366.000 C 34.000 366.747,34.107 366.853,34.480 366.480 C 34.853 366.107,34.853 365.893,34.480 365.520 C 34.107 365.147,34.000 365.253,34.000 366.000 M40.869 365.516 C 40.235 365.617,40.012 365.855,40.169 366.265 C 40.296 366.595,40.400 366.941,40.400 367.033 C 40.400 367.611,41.594 367.050,41.810 366.370 C 42.125 365.377,42.068 365.326,40.869 365.516 M40.400 370.400 C 40.400 371.911,40.547 372.400,41.000 372.400 C 41.453 372.400,41.600 371.911,41.600 370.400 C 41.600 368.889,41.453 368.400,41.000 368.400 C 40.547 368.400,40.400 368.889,40.400 370.400 M108.400 368.772 C 108.400 368.977,107.995 369.202,107.500 369.272 C 106.002 369.485,106.179 372.552,107.700 372.727 C 108.783 372.851,108.800 372.820,108.800 370.627 C 108.800 369.402,108.710 368.400,108.600 368.400 C 108.490 368.400,108.400 368.567,108.400 368.772 M52.500 372.276 C 52.885 372.376,53.515 372.376,53.900 372.276 C 54.285 372.175,53.970 372.093,53.200 372.093 C 52.430 372.093,52.115 372.175,52.500 372.276 M59.300 372.287 C 59.905 372.378,60.895 372.378,61.500 372.287 C 62.105 372.195,61.610 372.120,60.400 372.120 C 59.190 372.120,58.695 372.195,59.300 372.287 M44.000 373.966 L 43.000 374.252 44.100 374.471 C 44.868 374.623,45.200 374.525,45.200 374.145 C 45.200 373.845,45.155 373.618,45.100 373.640 C 45.045 373.662,44.550 373.809,44.000 373.966 M52.000 374.024 C 52.000 374.257,52.180 374.336,52.400 374.200 C 52.620 374.064,52.800 374.143,52.800 374.376 C 52.800 374.609,53.002 374.800,53.249 374.800 C 53.559 374.800,53.544 374.615,53.200 374.200 C 52.622 373.503,52.000 373.412,52.000 374.024 M91.525 374.044 C 90.799 374.497,92.445 374.800,95.633 374.800 C 97.375 374.800,98.800 374.633,98.800 374.429 C 98.800 374.014,92.139 373.662,91.525 374.044 M59.500 374.289 C 60.215 374.378,61.385 374.378,62.100 374.289 C 62.815 374.201,62.230 374.128,60.800 374.128 C 59.370 374.128,58.785 374.201,59.500 374.289 M70.300 374.293 C 71.235 374.377,72.765 374.377,73.700 374.293 C 74.635 374.209,73.870 374.140,72.000 374.140 C 70.130 374.140,69.365 374.209,70.300 374.293 M79.300 374.287 C 79.905 374.378,80.895 374.378,81.500 374.287 C 82.105 374.195,81.610 374.120,80.400 374.120 C 79.190 374.120,78.695 374.195,79.300 374.287 M128.500 374.697 C 130.205 374.772,132.995 374.772,134.700 374.697 C 136.405 374.622,135.010 374.561,131.600 374.561 C 128.190 374.561,126.795 374.622,128.500 374.697 M146.200 374.828 L 144.200 375.074 146.700 375.137 C 148.075 375.172,149.200 375.129,149.200 375.043 C 149.200 374.678,148.073 374.598,146.200 374.828 M179.717 375.097 C 181.211 375.174,183.551 375.174,184.917 375.096 C 186.282 375.018,185.060 374.955,182.200 374.955 C 179.340 374.956,178.222 375.020,179.717 375.097 M188.900 375.087 C 189.505 375.178,190.495 375.178,191.100 375.087 C 191.705 374.995,191.210 374.920,190.000 374.920 C 188.790 374.920,188.295 374.995,188.900 375.087 " stroke="none" fill="#9c9ca4" fill-rule="evenodd"></path></g></svg>